<svg width="24" height="24" viewBox="0 0 24 24" fill="none" xmlns="http://www.w3.org/2000/svg">
<path d="M20.4031 7.2V6H18.0031V2.4H3.60313V19.2H9.60313V24H13.5031H13.2031C12.5666 24 11.9562 23.7471 11.5061 23.2971C11.056 22.847 10.8031 22.2365 10.8031 21.6V9.6C10.8031 8.96348 11.056 8.35303 11.5061 7.90294C11.9562 7.45286 12.5666 7.2 13.2031 7.2H20.4031ZM13.5031 24H3.60313C2.96661 24 2.35616 23.7471 1.90607 23.2971C1.45598 22.847 1.20313 22.2365 1.20312 21.6V2.4C1.20312 1.08 2.28313 0 3.60313 0H18.0031C18.6396 0 19.2501 0.252856 19.7002 0.702944C20.1503 1.15303 20.4031 1.76348 20.4031 2.4V7.2C21.0396 7.2 21.6501 7.45286 22.1002 7.90294C22.5503 8.35303 22.8031 8.96348 22.8031 9.6V21.6C22.8031 22.2365 22.5503 22.847 22.1002 23.2971C21.6501 23.7471 21.0396 24 20.4031 24H13.5031ZM13.2031 9.6V19.2H20.4031V9.6H13.2031ZM16.8031 22.8C17.1214 22.8 17.4266 22.6736 17.6517 22.4485C17.8767 22.2235 18.0031 21.9183 18.0031 21.6C18.0031 21.2817 17.8767 20.9765 17.6517 20.7515C17.4266 20.5264 17.1214 20.4 16.8031 20.4C16.4849 20.4 16.1796 20.5264 15.9546 20.7515C15.7296 20.9765 15.6031 21.2817 15.6031 21.6C15.6031 21.9183 15.7296 22.2235 15.9546 22.4485C16.1796 22.6736 16.4849 22.8 16.8031 22.8Z" fill="#4C87B2"/>
</svg>
