<svg width="512" height="512" viewBox="0 0 512 512" fill="none" xmlns="http://www.w3.org/2000/svg">
<path d="M298.664 85.333C379.112 85.333 419.347 85.333 444.328 110.336C469.309 135.338 469.331 175.552 469.331 256V277.333M213.331 85.333C132.883 85.333 92.6481 85.333 67.6667 110.336C42.6854 135.338 42.6641 175.552 42.6641 256C42.6641 336.448 42.6641 376.682 67.6667 401.664C92.6694 426.645 132.883 426.666 213.331 426.666H277.331M213.331 341.333H127.997" stroke="white" stroke-width="24" stroke-linecap="round"/>
<path d="M384 426.666C419.346 426.666 448 398.012 448 362.666C448 327.32 419.346 298.666 384 298.666C348.654 298.666 320 327.32 320 362.666C320 398.012 348.654 426.666 384 426.666Z" stroke="white" stroke-width="24"/>
<path d="M437.331 416L458.664 437.333M42.6641 213.333H149.331M469.331 213.333H234.664" stroke="white" stroke-width="24" stroke-linecap="round"/>
</svg>
