<svg width="512" height="512" viewBox="0 0 512 512" fill="none" xmlns="http://www.w3.org/2000/svg">
<path d="M95.602 457C84.4298 457 74.8739 453.022 66.9344 445.066C58.9949 437.109 55.0167 427.57 55 416.448V95.5769C55 84.4214 58.9781 74.8739 66.9344 66.9344C74.8906 58.9949 84.4381 55.0167 95.5769 55H416.423C427.579 55 437.126 58.9781 445.066 66.9344C453.005 74.8906 456.983 84.4381 457 95.5769V416.423C457 427.579 453.022 437.126 445.066 445.066C437.109 453.005 427.562 456.983 416.423 457H95.602ZM95.602 431.875H416.423C420.929 431.875 424.631 430.426 427.528 427.528C430.426 424.631 431.875 420.929 431.875 416.423V130.375H80.125V416.423C80.125 420.929 81.5739 424.631 84.4716 427.528C87.3694 430.426 91.0795 431.875 95.602 431.875ZM256 356.5C228.748 356.5 204.192 349.515 182.334 335.546C160.475 321.593 143.959 303.453 132.787 281.125C143.959 258.797 160.475 240.657 182.334 226.704C204.192 212.735 228.748 205.75 256 205.75C283.252 205.75 307.808 212.735 329.667 226.704C351.525 240.674 368.041 258.814 379.213 281.125C368.041 303.453 351.525 321.593 329.667 335.546C307.808 349.515 283.252 356.5 256 356.5ZM255.9 309.165C248.077 309.165 241.461 306.426 236.051 300.949C230.674 295.471 227.986 288.83 227.986 281.024C227.986 273.202 230.716 266.586 236.176 261.176C241.654 255.799 248.295 253.111 256.1 253.111C263.923 253.111 270.539 255.841 275.949 261.301C281.343 266.779 284.04 273.42 284.04 281.225C284.04 289.048 281.301 295.664 275.824 301.074C270.346 306.468 263.705 309.165 255.9 309.165ZM256 328.486C269.065 328.486 280.229 323.863 289.492 314.617C298.754 305.371 303.377 294.207 303.361 281.125C303.344 268.043 298.721 256.879 289.492 247.633C280.246 238.387 269.082 233.764 256 233.764C242.918 233.764 231.754 238.387 222.508 247.633C213.262 256.879 208.639 268.043 208.639 281.125C208.639 294.207 213.262 305.371 222.508 314.617C231.754 323.863 242.918 328.486 256 328.486Z" fill="white"/>
</svg>
