<svg width="512" height="512" viewBox="0 0 512 512" fill="none" xmlns="http://www.w3.org/2000/svg">
<path d="M439.999 440H72" stroke="white" stroke-width="32" stroke-linecap="round"/>
<path opacity="0.5" d="M421.603 440V302C421.603 294.68 418.695 287.66 413.519 282.484C408.343 277.308 401.323 274.4 394.003 274.4H338.803C331.483 274.4 324.463 277.308 319.287 282.484C314.111 287.66 311.203 294.68 311.203 302V440" stroke="white" stroke-width="32"/>
<path d="M311.197 440V127.201C311.197 101.183 311.197 88.1745 303.101 80.097C295.042 72.001 282.033 72.001 255.997 72.001C229.961 72.001 216.97 72.001 208.893 80.097C200.797 88.1561 200.797 101.165 200.797 127.201V440" stroke="white" stroke-width="32"/>
<path opacity="0.5" d="M200.798 440V210C200.798 202.68 197.89 195.66 192.714 190.484C187.538 185.308 180.518 182.4 173.198 182.4H117.998C110.678 182.4 103.658 185.308 98.4823 190.484C93.3063 195.66 90.3984 202.68 90.3984 210V440" stroke="white" stroke-width="32"/>
</svg>
