<svg width="24" height="24" viewBox="0 0 24 24" fill="none" xmlns="http://www.w3.org/2000/svg">
<g clip-path="url(#clip0_4421_973)">
<path d="M20.467 8.69313L20.713 8.12713C21.1455 7.12585 21.9376 6.32305 22.933 5.87713L23.692 5.53813C23.7841 5.49577 23.8621 5.4279 23.9168 5.34256C23.9714 5.25722 24.0005 5.15798 24.0005 5.05663C24.0005 4.95527 23.9714 4.85604 23.9168 4.7707C23.8621 4.68536 23.7841 4.61749 23.692 4.57513L22.975 4.25613C21.9546 3.79751 21.1489 2.96501 20.724 1.93013L20.471 1.31913C20.4338 1.22448 20.369 1.14323 20.285 1.08595C20.201 1.02868 20.1017 0.998047 20 0.998047C19.8983 0.998047 19.799 1.02868 19.715 1.08595C19.631 1.14323 19.5662 1.22448 19.529 1.31913L19.276 1.92913C18.8515 2.9642 18.0462 3.79706 17.026 4.25613L16.308 4.57613C16.2162 4.61861 16.1385 4.68647 16.084 4.7717C16.0295 4.85693 16.0006 4.95597 16.0006 5.05713C16.0006 5.15828 16.0295 5.25732 16.084 5.34255C16.1385 5.42779 16.2162 5.49565 16.308 5.53813L17.068 5.87613C18.0632 6.32249 18.8549 7.12565 19.287 8.12713L19.533 8.69313C19.713 9.10713 20.286 9.10713 20.467 8.69313ZM5.8 15.9991H7.954L8.554 14.4991H11.446L12.046 15.9991H14.2L11 7.99913H9L5.8 15.9991ZM10 10.8841L10.646 12.4991H9.354L10 10.8841ZM15 15.9991V7.99913H17V15.9991H15ZM3 2.99913C2.73478 2.99913 2.48043 3.10448 2.29289 3.29202C2.10536 3.47956 2 3.73391 2 3.99913V19.9991C2 20.2643 2.10536 20.5187 2.29289 20.7062C2.48043 20.8938 2.73478 20.9991 3 20.9991H21C21.2652 20.9991 21.5196 20.8938 21.7071 20.7062C21.8946 20.5187 22 20.2643 22 19.9991V10.9991H20V18.9991H4V4.99913H14V2.99913H3Z" fill="#4C87B2"/>
</g>
<defs>
<clipPath id="clip0_4421_973">
<rect width="24" height="24" fill="white"/>
</clipPath>
</defs>
</svg>
