<svg width="512" height="512" viewBox="0 0 512 512" fill="none" xmlns="http://www.w3.org/2000/svg">
<path d="M257.812 146.803L205.294 241.335C204.924 242.002 205.406 242.821 206.168 242.821H305.135C305.881 242.821 306.364 243.608 306.027 244.273L257.812 339.467" stroke="white" stroke-width="15" stroke-linecap="round"/>
<path d="M86.8157 78.2561L264.363 15.1396C264.591 15.0584 264.841 15.0629 265.067 15.1523L423.968 78.2003C445.465 86.7297 460.077 106.997 461.368 130.088C464.591 187.767 468.472 272.067 459.264 326.916C447.742 395.549 326.742 473.014 265.116 496.834C264.854 496.935 264.59 496.924 264.339 496.799C240.999 485.218 176.214 461.025 127.279 426.072C78.078 390.928 50.716 350.764 47.5781 316.247V133.848C47.5781 108.882 63.2919 86.6186 86.8157 78.2561Z" stroke="white" stroke-width="15"/>
</svg>
