<svg width="512" height="512" viewBox="0 0 512 512" fill="none" xmlns="http://www.w3.org/2000/svg">
<path d="M29 10V482C29 483.657 30.3431 485 32 485H495" stroke="white" stroke-width="15" stroke-linecap="round"/>
<circle cx="23" cy="23" r="23" transform="matrix(1 0 0 -1 76 146)" fill="white"/>
<circle cx="21" cy="21" r="21" transform="matrix(1 0 0 -1 190 269)" fill="white"/>
<circle cx="21" cy="21" r="21" transform="matrix(1 0 0 -1 271 188)" fill="white"/>
<path d="M99 128L209.03 249.782C209.419 250.213 210.094 250.222 210.495 249.801L293.424 162.88C293.832 162.452 294.52 162.47 294.906 162.918L417 305" stroke="white" stroke-width="15" stroke-linecap="round"/>
<path d="M433.524 340.942C439.221 343.281 445.314 338.576 444.491 332.473L437.292 279.069C436.47 272.966 429.349 270.042 424.474 273.806L381.825 306.742C376.95 310.506 377.979 318.135 383.676 320.474L433.524 340.942Z" fill="white"/>
</svg>
