<svg width="512" height="512" viewBox="0 0 512 512" fill="none" xmlns="http://www.w3.org/2000/svg">
<circle cx="99" cy="352" r="23" fill="white"/>
<circle cx="211" cy="227" r="21" fill="white"/>
<circle cx="292" cy="308" r="21" fill="white"/>
<path d="M29 10V482C29 483.657 30.3431 485 32 485H495" stroke="white" stroke-width="15" stroke-linecap="round"/>
<path d="M99 347L209.03 225.218C209.419 224.787 210.094 224.778 210.495 225.199L293.424 312.12C293.832 312.548 294.52 312.53 294.906 312.082L417 170" stroke="white" stroke-width="15" stroke-linecap="round"/>
<path d="M433.524 134.058C439.221 131.719 445.314 136.424 444.491 142.527L437.292 195.931C436.47 202.034 429.349 204.958 424.474 201.194L381.825 168.258C376.95 164.494 377.979 156.865 383.676 154.526L433.524 134.058Z" fill="white"/>
</svg>
