<svg width="24" height="24" viewBox="0 0 24 24" fill="none" xmlns="http://www.w3.org/2000/svg">
<path d="M11.1611 23.5979L11.1536 12.5502L0.715917 7.28387C0.433208 7.14252 0.0798287 7.33705 0.0783249 7.63515L0.000126015 16.9391C-0.0104004 18.0517 0.639212 19.0677 1.69937 19.5911L10.525 23.9548C10.8077 24.0933 11.1611 23.896 11.1611 23.5979Z" fill="#4C87B2"/>
<path d="M13.4937 23.7465L22.2201 18.9084C23.2682 18.3276 23.9193 17.2906 23.9268 16.1849L23.999 7.65775C24.0035 7.05876 23.2998 6.70609 22.7283 7.02098L12.8516 12.5L12.8591 23.4316C12.8591 23.7311 13.2125 23.906 13.4937 23.7465Z" fill="#4C87B2"/>
<path d="M1.6789 5.974L12.0053 11.1844L21.8805 5.7053C22.4505 5.38761 22.452 4.64167 21.885 4.36037L13.7903 0.359182C12.7436 -0.154437 11.4564 -0.115253 10.4068 0.464143L1.68041 5.30504C1.39921 5.46038 1.39769 5.83265 1.6789 5.974Z" fill="#4C87B2"/>
</svg>
