<svg width="24" height="24" viewBox="0 0 24 24" fill="none" xmlns="http://www.w3.org/2000/svg">
<g clip-path="url(#clip0_4726_1073)">
<path d="M8.56385 4.08025C9.27151 2.00936 12.1329 1.94664 12.9719 3.8921L13.0429 4.08144L13.9979 6.87419C14.2167 7.51467 14.5704 8.10076 15.035 8.59294C15.4996 9.08512 16.0644 9.47193 16.6912 9.72729L16.948 9.82314L19.7408 10.7769C21.8117 11.4846 21.8744 14.346 19.9301 15.185L19.7408 15.256L16.948 16.211C16.3073 16.4297 15.721 16.7833 15.2286 17.2479C14.7362 17.7125 14.3492 18.2774 14.0937 18.9043L13.9979 19.1599L13.0441 21.9538C12.3364 24.0247 9.47505 24.0875 8.63722 22.1432L8.56385 21.9538L7.61006 19.1611C7.39135 18.5204 7.03775 17.9341 6.57312 17.4417C6.10849 16.9493 5.54365 16.5623 4.91671 16.3068L4.6611 16.211L1.86835 15.2572C-0.203725 14.5495 -0.266444 11.6881 1.67901 10.8503L1.86835 10.7769L4.6611 9.82314C5.30158 9.60428 5.88768 9.25062 6.37985 8.786C6.87203 8.32138 7.25885 7.75661 7.5142 7.12979L7.61006 6.87419L8.56385 4.08025ZM20.2709 2.1382e-07C20.4923 -2.79242e-07 20.7092 0.0621011 20.8971 0.179247C21.0849 0.296392 21.2362 0.463884 21.3336 0.662686L21.3904 0.801141L21.8046 2.01528L23.0199 2.42946C23.2417 2.50483 23.4362 2.64437 23.5787 2.8304C23.7212 3.01642 23.8052 3.24056 23.8202 3.47439C23.8351 3.70823 23.7803 3.94124 23.6627 4.1439C23.5451 4.34656 23.37 4.50975 23.1595 4.61277L23.0199 4.66957L21.8057 5.08375L21.3916 6.29907C21.3161 6.52087 21.1764 6.71526 20.9903 6.85761C20.8042 6.99996 20.5801 7.08387 20.3462 7.0987C20.1124 7.11353 19.8794 7.05861 19.6768 6.9409C19.4743 6.8232 19.3112 6.64801 19.2083 6.43752L19.1515 6.29907L18.7373 5.08493L17.522 4.67076C17.3001 4.59538 17.1056 4.45584 16.9631 4.26981C16.8207 4.08379 16.7366 3.85965 16.7217 3.62582C16.7067 3.39198 16.7615 3.15897 16.8791 2.95631C16.9967 2.75365 17.1719 2.59047 17.3823 2.48744L17.522 2.43064L18.7361 2.01646L19.1503 0.801141C19.2301 0.567337 19.381 0.364369 19.582 0.220697C19.783 0.0770243 20.0239 -0.000148254 20.2709 2.1382e-07Z" fill="#4C87B2"/>
</g>
<defs>
<clipPath id="clip0_4726_1073">
<rect width="24" height="24" fill="white"/>
</clipPath>
</defs>
</svg>
