<svg width="34" height="18" viewBox="0 0 34 18" fill="none" xmlns="http://www.w3.org/2000/svg">
<path d="M0 0.315552H3.32343V16.9363H0V0.315552Z" fill="#4C87B2"/>
<path d="M5.45703 8.5588C5.45703 3.14353 8.49036 0 12.8923 0C17.2943 0 20.3261 3.16734 20.3261 8.5588C20.3261 13.9488 17.2943 17.25 12.8923 17.25C8.49036 17.25 5.45703 13.9488 5.45703 8.5588ZM16.9343 8.5588C16.9343 4.98681 15.3618 2.85194 12.8923 2.85194C10.4228 2.85194 8.84738 4.98681 8.84738 8.5588C8.84738 12.107 10.4228 14.3757 12.8923 14.3757C15.3618 14.3757 16.9343 12.107 16.9343 8.5588Z" fill="#4C87B2"/>
<path d="M25.7587 3.07674H21.0859V0.315552H33.7994V3.07674H29.0821V16.9348H25.7587V3.07674Z" fill="#4C87B2"/>
</svg>
