<svg width="24" height="24" viewBox="0 0 24 24" fill="none" xmlns="http://www.w3.org/2000/svg">
<mask id="mask0_3816_239" style="mask-type:luminance" maskUnits="userSpaceOnUse" x="0" y="0" width="24" height="24">
<path d="M24 0H0V24H24V0Z" fill="white"/>
</mask>
<g mask="url(#mask0_3816_239)">
<path d="M21.8706 3.92333L12.8688 0.173069C12.596 0.0595086 12.3038 0.00134277 12.0061 0.00134277C11.7083 0.00134277 11.4133 0.0595086 11.1405 0.173069L2.14156 3.92333C1.30093 4.26955 0.753906 5.09078 0.753906 5.99927C0.753906 15.3043 6.12032 21.7357 11.135 23.8268C11.6889 24.0554 12.3121 24.0554 12.8661 23.8268C16.8822 22.1525 23.2527 16.3734 23.2527 5.99927C23.2527 5.09078 22.7029 4.26955 21.8706 3.92333ZM12.0075 20.9214L12.0019 3.06193L20.2461 6.49782C20.0924 13.594 16.3975 18.7346 12.0075 20.9214Z" fill="#4C87B2"/>
</g>
</svg>
