<svg width="24" height="24" viewBox="0 0 24 24" fill="none" xmlns="http://www.w3.org/2000/svg">
<path d="M11.9994 7.20117C13.3062 7.20117 14.5618 7.70739 15.4866 8.60717C16.4114 9.50695 16.9317 10.7271 16.9317 12C16.9317 13.2729 16.4114 14.4931 15.4866 15.3928C14.5618 16.2926 13.3062 16.7988 11.9994 16.7988C10.6912 16.7988 9.43706 16.2926 8.51226 15.3928C7.58745 14.4931 7.06716 13.2729 7.06716 12C7.06716 10.7271 7.58745 9.50695 8.51226 8.60717C9.43706 7.70739 10.6912 7.20117 11.9994 7.20117ZM11.9994 9.60205C11.3438 9.60205 10.7167 9.85369 10.2551 10.3043C9.79344 10.7549 9.5333 11.365 9.5333 12C9.5333 12.635 9.79495 13.248 10.2551 13.6971C10.7182 14.1478 11.3453 14.3994 11.9994 14.3994C12.6536 14.3994 13.2806 14.1463 13.7438 13.6971C14.2054 13.2465 14.4656 12.635 14.4656 12C14.4656 11.365 14.2039 10.7535 13.7438 10.3043C13.2806 9.85369 12.6536 9.60205 11.9994 9.60205ZM9.5333 24C9.22503 24 8.96638 23.7849 8.91676 23.4967L8.46114 20.316C7.6822 20.0161 7.01754 19.6079 6.37544 19.1266L3.3063 20.3394C3.03412 20.4331 2.70179 20.3394 2.55292 20.0746L0.0852767 15.9225C-0.0741203 15.6576 -0.00194199 15.3343 0.234146 15.1558L2.83562 13.1646L2.74991 12L2.83562 10.8003L0.234146 8.84564C-0.000438247 8.66569 -0.0741203 8.34089 0.0852767 8.07754L2.55292 3.92538C2.70179 3.66057 3.03412 3.55377 3.3063 3.66057L6.37544 4.86028C7.01754 4.39356 7.6822 3.98391 8.46114 3.68398L8.91676 0.504754C8.96638 0.216532 9.22503 0 9.5333 0H14.4671C14.7754 0 15.034 0.215069 15.0836 0.504754L15.5393 3.68398C16.3167 3.98391 16.9828 4.3921 17.6249 4.86028L20.6941 3.66057C20.9663 3.55377 21.2986 3.66057 21.4475 3.92538L23.9136 8.07754C24.0745 8.34236 24.0023 8.66569 23.7662 8.84564L21.1633 10.8003L21.2505 12L21.1633 13.1997L23.7662 15.1558C24.0008 15.3343 24.0745 15.6591 23.9136 15.9225L21.4475 20.0746C21.2986 20.3394 20.9663 20.4462 20.6941 20.3394L17.6249 19.1397C16.9828 19.6064 16.3167 20.0161 15.5393 20.316L15.0836 23.4967C15.034 23.7835 14.7754 24 14.4671 24H9.5333ZM11.0746 2.40234L10.6175 5.53475C9.13782 5.83321 7.83106 6.60132 6.8807 7.67081L3.9078 6.42136L2.98298 7.98098L5.58597 9.84052C5.09274 11.2436 5.09274 12.7681 5.58597 14.1595L2.97096 16.0293L3.89576 17.5903L6.89122 16.3409C7.84309 17.3972 9.13631 18.1653 10.6055 18.4521L11.0626 21.5962H12.9363L13.3934 18.4638C14.8611 18.1639 16.1558 17.3958 17.1062 16.3394L20.1031 17.5889L21.0279 16.0278L18.4129 14.1697C18.9046 12.7652 18.9046 11.2407 18.4129 9.8376L21.0144 7.97805L20.0911 6.41843L17.1182 7.66789C16.1663 6.59986 14.8596 5.83028 13.3799 5.54353L12.9242 2.40088H11.0746V2.40234Z" fill="#4C87B2"/>
</svg>
