<svg width="24" height="26" viewBox="0 0 24 26" fill="none" xmlns="http://www.w3.org/2000/svg">
<path d="M11.1611 25.3573L11.1536 13.4859L0.715917 7.82693C0.433208 7.67504 0.0798287 7.88408 0.0783249 8.2044L0.000126015 18.202C-0.0104004 19.3975 0.639212 20.4893 1.69937 21.0517L10.525 25.7407C10.8077 25.8896 11.1611 25.6776 11.1611 25.3573Z" fill="#4C87B2"/>
<path d="M13.4937 25.5167L22.2201 20.3179C23.2682 19.6938 23.9193 18.5795 23.9268 17.3915L23.999 8.22852C24.0035 7.58487 23.2998 7.20591 22.7283 7.54427L12.8516 13.4318L12.8591 25.1784C12.8591 25.5002 13.2125 25.6882 13.4937 25.5167Z" fill="#4C87B2"/>
<path d="M1.6789 6.41938L12.0053 12.0182L21.8805 6.13065C22.4505 5.78927 22.452 4.98772 21.885 4.68545L13.7903 0.38596C12.7436 -0.165951 11.4564 -0.123845 10.4068 0.498747L1.68041 5.70055C1.39921 5.86747 1.39769 6.2675 1.6789 6.41938Z" fill="#4C87B2"/>
</svg>
