<svg width="24" height="30" viewBox="0 0 24 30" fill="none" xmlns="http://www.w3.org/2000/svg">
<path d="M0 25.7678V29.305H24V25.7678C24 21.7441 20.6738 18.4809 16.5739 18.4809H16.1754C18.1125 17.4185 19.5763 15.6499 20.18 13.537H20.3001C21.446 13.537 22.3809 12.6402 22.3809 11.5369V10.8921C22.3809 9.93677 21.679 9.14111 20.7441 8.94476C20.7778 8.65757 20.8013 8.36597 20.8013 8.06998L20.7969 7.985C20.7984 7.77253 20.791 7.5542 20.7632 7.31975C20.6357 5.95557 20.1595 4.69249 19.4283 3.61989C19.0503 3.06748 18.555 2.6147 18.0978 2.12969C17.245 1.22707 16.1006 0.695173 15.0324 0.383066C13.447 -0.0785005 11.7663 -0.100481 10.1442 0.196973C9.46725 0.322988 9.02181 0.444607 8.95733 0.501754C5.68974 1.46738 3.30424 4.48881 3.30424 8.06998C3.30424 8.12127 3.30717 8.17695 3.3101 8.2297C3.30717 8.47147 3.31304 8.70739 3.33648 8.9433C2.36646 9.11034 1.62502 9.91039 1.62502 10.8907V11.5354C1.62502 12.6388 2.55548 13.5341 3.7028 13.5341H3.82589C4.42666 15.6455 5.89194 17.4156 7.82905 18.4779H7.42904C3.32622 18.4809 0 21.7441 0 25.7678ZM20.5243 10.1097C20.8863 10.2034 21.1588 10.5156 21.1588 10.8921V11.5369C21.1588 11.9515 20.8379 12.2915 20.4232 12.3486C20.4599 12.0321 20.4892 11.7112 20.4892 11.3845C20.4892 11.068 20.4584 10.7588 20.4203 10.4525C20.4555 10.3383 20.4921 10.2254 20.5243 10.1097ZM2.8456 11.5369V10.8921C2.8456 10.4862 3.15625 10.1536 3.56067 10.0892C3.5636 10.2459 3.56945 10.4013 3.57238 10.558C3.53868 10.8321 3.51524 11.1031 3.51524 11.3845C3.51524 11.7127 3.54161 12.0321 3.57824 12.3486C3.16503 12.2915 2.8456 11.9515 2.8456 11.5369ZM12.0007 22.6306C9.82478 22.6306 8.05765 20.8664 8.05765 18.6904C8.05765 18.6582 8.06204 18.6347 8.06351 18.6084C8.22176 18.6889 8.38441 18.7651 8.54705 18.8369C9.60353 19.2926 10.7714 19.5461 12.0007 19.5461C13.2301 19.5461 14.3994 19.2926 15.4544 18.8369C15.6171 18.7651 15.7812 18.6875 15.938 18.6084C15.9409 18.6347 15.9438 18.6567 15.9438 18.6904C15.9438 20.8649 14.1782 22.6306 12.0007 22.6306ZM5.03768 13.3611C4.91459 12.9641 4.82522 12.5552 4.77979 12.1347C4.75049 11.8871 4.73584 11.638 4.73584 11.383C4.73584 11.0284 4.771 10.6811 4.82668 10.3412C4.85305 10.1829 4.88675 10.0276 4.92045 9.87376C5.91831 9.16602 7.19313 8.06412 7.68254 7.19667C7.68254 7.19667 15.7475 9.08543 18.6839 9.30376C18.7704 9.30962 18.848 9.31255 18.9257 9.31401C19.0327 9.64957 19.1206 9.99098 19.1763 10.3441C19.229 10.6841 19.2657 11.0313 19.2657 11.3859C19.2657 11.6409 19.251 11.89 19.2232 12.1362C19.1748 12.5582 19.0854 12.967 18.9653 13.3626C18.0758 16.2536 15.2933 18.371 12.0022 18.371C8.71117 18.371 5.92564 16.2522 5.03768 13.3611Z" fill="#4C87B2"/>
<path opacity="0.5" d="M14.4492 21.1359C13.8191 21.7645 12.9546 22.1499 11.9993 22.1499C11.0439 22.1499 10.1794 21.7631 9.55222 21.1359C8.95731 20.5425 8.58512 19.7336 8.54409 18.8369C8.38145 18.7651 8.21733 18.6874 8.06055 18.6053C8.05908 18.6347 8.05469 18.6566 8.05469 18.6889C8.05469 20.8663 9.82038 22.6305 11.9978 22.6305C14.1752 22.6305 15.9409 20.8663 15.9409 18.6889C15.9409 18.6581 15.938 18.6347 15.935 18.6068C15.7782 18.6889 15.6156 18.7636 15.4515 18.8354C15.4134 19.7322 15.0412 20.5425 14.4492 21.1359Z" fill="#4C87B2"/>
<path d="M10.9308 10.2561C10.8751 10.1873 10.7946 10.1492 10.7081 10.1492H5.562C5.47115 10.1492 5.38763 10.1917 5.33195 10.2635C5.27773 10.3353 5.26014 10.429 5.28359 10.517L5.95618 12.9215C5.99281 13.0461 6.10563 13.1325 6.23311 13.1325H10.226C10.3638 13.1325 10.481 13.0358 10.5088 12.8995L10.7843 11.5221C10.8459 11.4342 10.9704 11.339 11.1594 11.2672C11.3924 11.1749 11.706 11.1221 12.0152 11.1236C12.3243 11.1221 12.6291 11.1734 12.8577 11.2643C13.0438 11.3375 13.1625 11.4298 13.224 11.5178L13.5009 12.8995C13.5273 13.0358 13.646 13.1325 13.7823 13.1325H17.7752C17.9042 13.1325 18.0184 13.0475 18.0521 12.9215L18.7247 10.517C18.7496 10.429 18.7306 10.3353 18.6764 10.2635C18.6222 10.1917 18.5372 10.1492 18.4478 10.1492H13.3017C13.2137 10.1492 13.1332 10.1873 13.0789 10.2561C13.0247 10.3221 13.0013 10.4085 13.0189 10.4935L13.0599 10.706C12.7419 10.5844 12.38 10.5272 12.0137 10.5272C11.64 10.5272 11.2679 10.5844 10.9455 10.7089L10.988 10.495C11.0056 10.4085 10.985 10.3221 10.9308 10.2561ZM10.2451 11.2745C10.2275 11.3038 10.2084 11.3317 10.1953 11.3639L10.2275 11.3771L9.98866 12.5566H6.4529L5.94151 10.728H10.3535L10.2451 11.2745ZM18.0697 10.7265L17.5569 12.5552H14.0211L13.7852 11.3756L13.816 11.3639C13.8043 11.3287 13.7823 11.3009 13.7647 11.2716L13.6563 10.7265H18.0697Z" fill="#4C87B2"/>
</svg>
