<svg width="300" height="89" viewBox="0 0 300 89" fill="none" xmlns="http://www.w3.org/2000/svg">
<g clip-path="url(#clip0_4168_308)">
<path d="M115.165 21.4539C115.165 21.4539 86.875 20.0432 79.5255 54.2445C77.965 61.5503 75.7098 85.5436 104.484 88.214C113.63 89.071 122.805 86.8895 130.589 82.0066L134.445 71.4358C127.124 75.8211 118.699 78.0106 110.172 77.744C96.6407 77.3611 93.0566 68.6747 94.1842 59.1318H136.912C136.912 59.1318 140.234 45.548 137.244 35.6222C133.499 23.1771 121.981 21.4539 115.165 21.4539ZM124.518 49.0044H96.4796C96.4796 49.0044 101.312 33.2138 114.863 33.1836C127.106 33.1533 124.831 45.548 124.518 49.0044ZM163.259 65.4299L168.464 39.0685H182.217L186.174 28.8101H170.438L172.924 16.9999C172.924 16.9999 173.498 14.5613 170.911 15.0954C165.666 16.2868 160.691 18.4503 156.242 21.4741L154.651 29.1427H145.278L141.251 39.4918H152.678C152.678 39.4918 146.939 68.4228 146.416 71.1033C145.822 74.1264 143.033 88.5062 161.789 88.2946C169.713 88.2039 174.565 85.463 176.609 83.8003L179.73 75.9604C176.373 77.9671 172.563 79.0903 168.656 79.2253C160.591 79.2253 161.89 72.0404 163.259 65.4299ZM219.73 21.9276C219.73 21.9276 209.199 21.6555 195.436 29.9891L191.409 40.6405C191.409 40.6405 202.534 33.6773 216.035 33.0929C221.562 32.851 227.653 33.6572 227.492 39.3305C227.299 41.8591 226.833 44.3593 226.102 46.7875C226.102 46.7875 181.452 44.4093 182.026 73.6427C182.177 81.6438 189.254 88.3047 200.299 88.345C210.92 88.345 217.656 83.1654 219.599 81.15H219.699L218.038 88.9698L234.288 83.9313C234.288 83.9313 240.902 51.3423 241.879 46.193C242.463 43.0288 247.466 21.4439 219.73 21.9276ZM220.475 70.0452C218.693 72.8869 213.84 77.6735 205.222 77.6836C195.154 77.6836 195.577 70.0452 195.577 70.0452C196.312 55.1312 224.502 56.6126 224.502 56.6126C223.736 62.9409 222.226 67.2539 220.475 70.0452ZM42.8687 48.3696H59.843L59.7523 48.8533C59.7523 48.8533 55.6245 69.1383 55.3628 70.408C47.6911 76.4542 16.9038 80.7067 17.3569 51.2617C17.7093 28.6993 33.0022 17.7355 41.6605 14.8938C47.1558 13.0784 52.9197 12.2129 58.7053 12.3343C61.5142 12.3343 64.1218 12.4552 67.575 12.7071L72.2062 0.917026C67.1135 0.280155 61.985 -0.0261535 56.8528 1.94989e-05C41.6001 1.94989e-05 28.7637 4.44397 18.5952 12.7273C7.0374 22.25 0.332249 35.9749 -0.0100562 52.1081C-0.181209 62.2557 4.28889 88.6776 37.5327 88.9899C51.6276 89.1411 63.0344 84.8281 70.3336 76.7665L77.9146 38.2926H46.8756L42.8687 48.3696Z" fill="#D5492A"/>
<path d="M276.854 77.8045C264.511 77.8952 259.235 71.2645 259.738 61.2177C259.738 61.2177 259.96 32.6192 287.042 31.7425C290.071 31.5751 293.108 31.7305 296.103 32.2061L299.859 22.8143C295.582 21.9033 291.223 21.4373 286.851 21.4237C280.478 21.5043 245.573 23.9933 244.204 62.1851C244.204 62.1851 242.321 86.5916 271.115 88.3349C273.29 88.4659 285.301 89.1612 296.164 81.9159L300.01 71.3653C300.01 71.3653 291.21 77.6836 276.854 77.8045Z" fill="#D5492A"/>
</g>
<defs>
<clipPath id="clip0_4168_308">
<rect width="300" height="89" fill="white"/>
</clipPath>
</defs>
</svg>
