<svg width="243" height="72" viewBox="0 0 243 72" fill="none" xmlns="http://www.w3.org/2000/svg">
<g clip-path="url(#clip0_4168_308)">
<path d="M93.2842 17.356C93.2842 17.356 70.3689 16.2147 64.4158 43.8832C63.1518 49.7935 61.3251 69.2038 84.6318 71.3642C92.0408 72.0574 99.472 70.2926 105.777 66.3424L108.901 57.7908C102.971 61.3384 96.1467 63.1097 89.2393 62.894C78.2791 62.5843 75.376 55.5571 76.2893 47.837H110.899C110.899 47.837 113.59 36.8479 111.168 28.818C108.134 18.75 98.805 17.356 93.2842 17.356ZM100.86 39.644H78.1486C78.1486 39.644 82.063 26.8696 93.0395 26.8451C102.956 26.8207 101.113 36.8479 100.86 39.644ZM132.24 52.9321L136.456 31.606H147.596L150.801 23.3071H138.055L140.069 13.7527C140.069 13.7527 140.534 11.7799 138.438 12.212C134.19 13.1758 130.16 14.9261 126.556 17.3723L125.268 23.5761H117.675L114.414 31.9484H123.669C123.669 31.9484 119.021 55.3533 118.597 57.5218C118.116 59.9674 115.857 71.6006 131.05 71.4294C137.467 71.356 141.398 69.1386 143.054 67.7935L145.582 61.4511C142.862 63.0745 139.776 63.9832 136.611 64.0924C130.079 64.0924 131.131 58.2799 132.24 52.9321ZM177.981 17.7392C177.981 17.7392 169.451 17.519 158.303 24.2609L155.041 32.8777C155.041 32.8777 164.052 27.2446 174.988 26.7718C179.465 26.5761 184.399 27.2283 184.268 31.818C184.112 33.8635 183.735 35.8862 183.143 37.8506C183.143 37.8506 146.976 35.9267 147.441 59.5761C147.563 66.0489 153.296 71.4375 162.242 71.4701C170.846 71.4701 176.301 67.2799 177.875 65.6495H177.957L176.611 71.9756L189.773 67.8995C189.773 67.8995 195.131 41.5354 195.922 37.3696C196.395 34.8098 200.448 17.3479 177.981 17.7392ZM178.585 56.6658C177.141 58.9647 173.21 62.837 166.23 62.8451C158.075 62.8451 158.417 56.6658 158.417 56.6658C159.013 44.6006 181.846 45.7989 181.846 45.7989C181.227 50.9185 180.003 54.4076 178.585 56.6658ZM34.7238 39.1305H48.4729L48.3995 39.5218C48.3995 39.5218 45.056 55.9321 44.844 56.9593C38.63 61.8506 13.6922 65.2908 14.0592 41.4701C14.3446 23.2174 26.7319 14.3479 33.7452 12.0489C38.1963 10.5803 42.8651 9.88008 47.5514 9.97829C49.8267 9.97829 51.9388 10.0761 54.7359 10.2799L58.4872 0.741877C54.3621 0.226656 50.208 -0.0211442 46.0509 2.94901e-05C33.6962 2.94901e-05 23.2987 3.59514 15.0623 10.2962C5.70044 18 0.269268 29.1033 -0.00799901 42.1549C-0.146632 50.3642 3.47415 71.7392 30.4017 71.9919C41.8185 72.1142 51.058 68.625 56.9704 62.1033L63.111 30.9783H37.9694L34.7238 39.1305Z" fill="#D5492A"/>
<path d="M224.252 62.943C214.254 63.0163 209.981 57.6522 210.389 49.5245C210.389 49.5245 210.568 26.3886 232.505 25.6794C234.958 25.5439 237.418 25.6696 239.844 26.0544L242.886 18.4565C239.422 17.7195 235.891 17.3425 232.35 17.3315C227.188 17.3968 198.915 19.4103 197.806 50.3071C197.806 50.3071 196.281 70.0517 219.604 71.462C221.365 71.568 231.094 72.1305 239.893 66.269L243.008 57.7337C243.008 57.7337 235.881 62.8451 224.252 62.943Z" fill="#D5492A"/>
</g>
<defs>
<clipPath id="clip0_4168_308">
<rect width="243" height="72" fill="white"/>
</clipPath>
</defs>
</svg>
