<svg width="89" height="89" viewBox="0 0 89 89" fill="none" xmlns="http://www.w3.org/2000/svg">
<path d="M48.3706 48.3711H65.5378L65.4462 48.8548C65.4462 48.8548 61.2715 69.1398 61.0067 70.4095C53.2479 76.4557 22.1107 80.7082 22.5689 51.2632C22.9253 28.7008 38.3921 17.7371 47.1488 14.8953C52.7064 13.0799 58.5359 12.2144 64.3872 12.3358C67.228 12.3358 69.8652 12.4567 73.3577 12.7086L78.0415 0.918552C72.891 0.281681 67.7042 -0.0246277 62.5137 0.00154538C47.0877 0.00154538 34.1054 4.4455 23.8213 12.7288C12.1322 22.2515 5.35084 35.9764 5.00464 52.1097C4.83155 62.2572 9.35244 88.6791 42.9741 88.9915C57.2291 89.1426 68.7656 84.8297 76.1476 76.7681L83.8148 38.2941H52.4231L48.3706 48.3711Z" fill="#D5492A"/>
</svg>
