<svg width="133" height="63" viewBox="0 0 133 63" fill="none" xmlns="http://www.w3.org/2000/svg">
<g clip-path="url(#clip0_4177_281)">
<mask id="mask0_4177_281" style="mask-type:luminance" maskUnits="userSpaceOnUse" x="0" y="0" width="133" height="63">
<path d="M133 0H0V63H133V0Z" fill="white"/>
</mask>
<g mask="url(#mask0_4177_281)">
<path d="M133 0H0V44.0175H133V0Z" fill="#00953B"/>
<path fill-rule="evenodd" clip-rule="evenodd" d="M43.8158 32.9764L41.5622 12.8384H40.1768L33.7115 37.5982H24.4754L18.0101 12.8384H16.6247L13.8538 37.5982H6.92676L10.6212 6.41919H22.6282L29.0934 31.179L35.5587 6.41919H47.5656L50.4104 30.4209C50.4904 30.855 50.8783 31.1729 51.3217 31.1729H54.0309V37.5982H49.2959C46.5928 37.5982 44.253 35.6419 43.8158 32.9764ZM78.0448 25.6768V30.262C78.0448 30.7694 77.6323 31.179 77.1212 31.179H56.8018V37.5982H78.9684C82.0225 37.5982 84.5101 35.1284 84.5101 32.096V23.8428C84.5101 20.8105 82.0225 18.3406 78.9684 18.3406H61.4198C60.9087 18.3406 60.4962 17.931 60.4962 17.4236V13.7554C60.4962 13.248 60.9087 12.8384 61.4198 12.8384H84.5101V6.41919H59.5726C56.5185 6.41919 54.0309 8.88906 54.0309 11.9214V19.2576C54.0309 22.2899 56.5185 24.7598 59.5726 24.7598H77.1212C77.6323 24.7598 78.0448 25.1694 78.0448 25.6768ZM108.894 12.8384H101.074L97.102 24.7598H114.866L111.48 14.593C111.073 13.5415 110.033 12.8384 108.894 12.8384ZM92.8226 37.5982H85.8955L94.1464 12.8384H87.2809V6.41919H115.679L126.073 37.5982H119.146L117.009 31.179H94.9654L92.8287 37.5982H92.8226Z" fill="white"/>
<path fill-rule="evenodd" clip-rule="evenodd" d="M8.46047 50.9197H5.89899L4.28575 59.3013H2.38311L3.98403 50.9197H1.42871L1.74274 49.2751H8.75602L8.46047 50.9197Z" fill="black"/>
<path fill-rule="evenodd" clip-rule="evenodd" d="M14.4271 59.3015H12.5429L13.4419 54.6674C13.6205 53.7626 13.4727 53.3897 12.9924 53.3897C11.9888 53.3897 10.6403 55.7067 10.3139 57.4307L9.95681 59.3015H8.08496L10.1662 48.4561H12.038L11.4531 51.574C11.3176 52.2281 11.0959 52.974 10.6464 54.2028L10.6772 54.215C11.3484 52.8945 12.3828 51.7513 13.8052 51.7513C15.2275 51.7513 15.677 52.76 15.4061 54.2028L14.4332 59.2954L14.4271 59.3015Z" fill="black"/>
<path fill-rule="evenodd" clip-rule="evenodd" d="M20.547 53.1634C19.5741 53.1634 18.9584 54.056 18.6936 55.0219C20.4177 54.9608 21.3105 54.6062 21.3105 53.8176C21.3105 53.4018 21.0273 53.1634 20.547 53.1634ZM18.4843 56.2813C18.472 56.4464 18.4412 56.697 18.4412 56.8621C18.4412 57.7058 18.7675 57.9625 19.802 57.9625C20.5224 57.9625 21.2859 57.7975 21.9694 57.5163V58.9713C21.1443 59.2831 20.1714 59.4481 19.1862 59.4481C17.3021 59.4481 16.5508 58.5861 16.5508 56.9538C16.5508 53.8665 18.435 51.7695 20.7564 51.7695C22.5974 51.7695 23.1639 52.6743 23.1639 53.5669C23.1639 55.3337 21.3967 56.1957 18.4843 56.2874V56.2813Z" fill="black"/>
<path fill-rule="evenodd" clip-rule="evenodd" d="M33.1884 50.9503C32.7082 50.7852 32.1848 50.7118 31.7661 50.7118C30.4792 50.7118 29.9435 51.3538 29.9435 52.0201C29.9435 53.5363 32.8621 53.5791 32.8621 55.9878C32.8621 57.9197 31.1257 59.4664 28.6566 59.4664C28.01 59.4664 27.3574 59.4053 26.834 59.2891L27.1788 57.4612C27.6591 57.6385 28.2563 57.773 28.792 57.773C30.0789 57.773 30.7686 57.2228 30.7686 56.318C30.7686 54.8629 27.8807 54.8629 27.8807 52.4725C27.8807 50.6629 29.2292 49.1162 31.8584 49.1162C32.4434 49.1162 32.9483 49.1468 33.5209 49.2507L33.1946 50.9564L33.1884 50.9503Z" fill="black"/>
<path fill-rule="evenodd" clip-rule="evenodd" d="M38.3672 53.2673C36.6493 53.2673 35.855 55.2603 35.855 56.8009C35.855 57.5285 36.052 57.828 36.4215 57.828C37.4867 57.828 38.8167 55.4071 39.1122 53.8481L39.2046 53.3713C38.9645 53.3101 38.6935 53.2673 38.3672 53.2673ZM39.9681 59.3014H38.1147C38.2502 58.7206 38.4719 57.9809 38.8167 56.9538H38.7859C38.1886 58.0359 37.1542 59.4664 35.6764 59.4664C34.5373 59.4664 33.9277 58.7389 33.9277 57.1616C33.9277 54.3678 35.4363 51.7878 38.6997 51.7878C39.5987 51.7878 40.4977 51.849 41.3351 52.014C40.6762 55.4437 40.2883 57.3634 39.9743 59.3075L39.9681 59.3014Z" fill="black"/>
<path fill-rule="evenodd" clip-rule="evenodd" d="M48.108 50.0027C47.8371 49.9294 47.4923 49.8866 47.2275 49.8866C46.3593 49.8866 45.9283 50.3023 45.719 51.4333L45.6266 51.9224H47.3199L47.0366 53.3957H45.331L44.1611 59.5765C43.7116 61.9547 42.4986 62.994 40.6576 62.994C40.2204 62.994 39.7771 62.9512 39.3584 62.8595L39.8078 61.3005C40.0788 61.3739 40.4236 61.4228 40.676 61.4228C41.5134 61.4228 41.9937 61.0376 42.277 59.5643L43.4592 53.4018H42.1846L42.4863 51.9285H43.7609L43.8471 51.3783C44.2042 49.4036 45.2387 48.3459 47.3322 48.3459C47.7509 48.3459 48.1573 48.3765 48.5452 48.4621L48.108 50.0088V50.0027Z" fill="black"/>
<path fill-rule="evenodd" clip-rule="evenodd" d="M50.9337 53.1634C49.9608 53.1634 49.3451 54.056 49.0803 55.0219C50.7982 54.9608 51.6972 54.6062 51.6972 53.8176C51.6972 53.4018 51.414 53.1634 50.9337 53.1634ZM48.871 56.2813C48.8586 56.4464 48.8279 56.697 48.8279 56.8621C48.8279 57.7058 49.1542 57.9625 50.1886 57.9625C50.9091 57.9625 51.6664 57.7975 52.356 57.5163V58.9713C51.531 59.2831 50.5581 59.4481 49.5729 59.4481C47.6887 59.4481 46.9375 58.5861 46.9375 56.9538C46.9375 53.8665 48.8217 51.7695 51.143 51.7695C52.9841 51.7695 53.5506 52.6743 53.5506 53.5669C53.5506 55.3337 51.7834 56.1957 48.871 56.2874V56.2813Z" fill="black"/>
<path fill-rule="evenodd" clip-rule="evenodd" d="M59.1793 53.3896H57.4306L56.8026 56.7153C56.6363 57.6079 56.7595 57.8463 57.369 57.8463C57.7447 57.8463 58.0279 57.8035 58.2988 57.7424L58.1203 59.2586C57.6277 59.3808 57.055 59.4542 56.5932 59.4542C54.9923 59.4542 54.5428 58.6961 54.8876 56.9293L55.5588 53.3957H54.2842L54.5859 51.9223H55.842L56.2792 49.6481L58.2249 49.2629L57.7139 51.9223H59.481L59.1793 53.3957V53.3896Z" fill="black"/>
<path fill-rule="evenodd" clip-rule="evenodd" d="M61.7955 61.6185C60.8104 62.5844 59.8498 63.0001 58.8769 63.0001C58.5013 63.0001 58.0826 62.9573 57.7686 62.8779L58.0826 61.2456C58.3659 61.3495 58.6799 61.3923 58.9939 61.3923C59.4742 61.3923 59.9791 61.1844 60.3855 60.7809C60.835 60.3346 61.0751 59.7844 61.0751 58.8796C61.0751 56.7704 60.5948 54.3312 59.9237 51.9102H62.0172C62.4359 53.5303 62.7623 55.6211 62.7623 57.1801C62.7623 57.3757 62.7315 57.6141 62.6884 57.8036H62.7192C63.7043 55.994 64.591 54.0622 65.5639 51.5923L67.3865 52.0997C65.2314 57.015 63.5442 59.8517 61.7894 61.6063L61.7955 61.6185Z" fill="black"/>
<path fill-rule="evenodd" clip-rule="evenodd" d="M78.4457 51.2316C77.8607 51.0237 77.2204 50.9198 76.6231 50.9198C73.9569 50.9198 73.0456 53.567 73.0456 55.5539C73.0456 56.8316 73.569 57.6753 75.213 57.6753C75.9581 57.6753 76.6785 57.5102 77.3066 57.2596L77.1711 59.0264C76.4076 59.2648 75.4963 59.4299 74.6281 59.4299C71.5617 59.4299 70.8721 57.5591 70.8721 55.9268C70.8721 52.5093 72.8917 49.1958 76.814 49.1958C77.6391 49.1958 78.341 49.2997 78.9383 49.477L78.4457 51.2316Z" fill="black"/>
<path fill-rule="evenodd" clip-rule="evenodd" d="M82.7555 53.3896C81.3639 53.3896 80.5265 55.0403 80.5265 56.5075C80.5265 57.3084 80.8528 57.8158 81.721 57.8158C83.051 57.8158 83.9808 56.3425 83.9808 54.6979C83.9808 53.8543 83.6237 53.3896 82.7555 53.3896ZM81.4686 59.4481C79.3874 59.4481 78.5684 58.47 78.5684 56.801C78.5684 53.7136 80.6496 51.7634 83.0387 51.7634C85.163 51.7634 85.9573 52.8944 85.9573 54.4534C85.9573 57.4979 83.8022 59.442 81.4686 59.442V59.4481Z" fill="black"/>
<path fill-rule="evenodd" clip-rule="evenodd" d="M97.312 59.3014H95.4402L96.3392 54.6674C96.5177 53.7626 96.3515 53.3713 95.9205 53.3713C94.9353 53.3713 93.5991 55.6761 93.2728 57.4124L92.9156 59.3014H91.0438L91.9428 54.6674C92.109 53.7626 91.9736 53.3713 91.5056 53.3713C90.5204 53.3713 89.2027 55.6761 88.8579 57.4246L88.5008 59.2953H86.6289L87.374 55.4316C87.5525 54.5573 87.8666 52.8333 88.0205 51.9102H89.8616C89.7692 52.3687 89.5783 53.084 89.1904 54.1966L89.2212 54.2089C89.8924 52.8883 90.896 51.7451 92.3061 51.7451C93.2174 51.7451 93.8146 52.2342 93.8146 53.1879C93.8146 53.4875 93.7407 53.7687 93.5868 54.2578H93.6176C94.3072 52.8883 95.3232 51.7451 96.7271 51.7451C98.131 51.7451 98.5805 52.7539 98.2972 54.1966L97.3059 59.2892L97.312 59.3014Z" fill="black"/>
<path fill-rule="evenodd" clip-rule="evenodd" d="M104.282 53.3896C103.217 53.3896 101.899 55.8106 101.603 57.339L101.517 57.8158C101.757 57.8892 102.084 57.9503 102.355 57.9503C104.06 57.9503 104.855 55.9573 104.855 54.4167C104.855 53.6892 104.645 53.3896 104.288 53.3896H104.282ZM102.01 59.4359C101.739 59.4359 101.517 59.4237 101.203 59.3748L100.544 62.8778H98.6729L100.095 55.4499C100.347 54.1722 100.587 52.8516 100.735 51.9163H102.576C102.459 52.4971 102.281 53.0901 101.905 54.2333L101.936 54.2516C102.669 52.7966 103.715 51.7573 105.033 51.7573C106.172 51.7573 106.782 52.4848 106.782 54.056C106.782 56.8499 105.273 59.4359 102.01 59.4359Z" fill="black"/>
<path fill-rule="evenodd" clip-rule="evenodd" d="M111.972 53.2673C110.248 53.2673 109.46 55.2603 109.46 56.8009C109.46 57.5285 109.657 57.828 110.027 57.828C111.092 57.828 112.422 55.4071 112.724 53.8481L112.81 53.3713C112.57 53.3101 112.299 53.2673 111.972 53.2673ZM113.573 59.3014H111.72C111.855 58.7206 112.077 57.9809 112.422 56.9538H112.391C111.794 58.0359 110.759 59.4664 109.282 59.4664C108.143 59.4664 107.533 58.7389 107.533 57.1616C107.533 54.3678 109.042 51.7878 112.305 51.7878C113.204 51.7878 114.097 51.849 114.94 52.014C114.281 55.4437 113.894 57.3634 113.58 59.3075L113.573 59.3014Z" fill="black"/>
<path fill-rule="evenodd" clip-rule="evenodd" d="M121.904 59.3014H120.02L120.919 54.6674C121.098 53.7626 120.95 53.3896 120.47 53.3896C119.466 53.3896 118.124 55.7067 117.791 57.4307L117.434 59.3014H115.562L116.307 55.4377C116.547 54.2517 116.788 52.9434 116.948 51.9163H118.789C118.703 52.3626 118.518 53.0473 118.118 54.2028L118.148 54.215C118.826 52.8945 119.854 51.7512 121.276 51.7512C122.699 51.7512 123.148 52.76 122.877 54.2028L121.904 59.2953V59.3014Z" fill="black"/>
<path fill-rule="evenodd" clip-rule="evenodd" d="M125.956 61.6185C124.971 62.5844 124.01 63.0001 123.037 63.0001C122.662 63.0001 122.243 62.9573 121.929 62.8779L122.243 61.2456C122.526 61.3495 122.84 61.3923 123.154 61.3923C123.635 61.3923 124.14 61.1844 124.546 60.7809C124.995 60.3346 125.236 59.7844 125.236 58.8796C125.236 56.7704 124.755 54.3312 124.084 51.9102H126.178C126.596 53.5303 126.929 55.6211 126.929 57.1801C126.929 57.3757 126.898 57.6141 126.855 57.8036H126.886C127.871 55.994 128.758 54.0622 129.73 51.5923L131.553 52.0997C129.398 57.015 127.705 59.8517 125.956 61.6063V61.6185Z" fill="black"/>
</g>
</g>
<defs>
<clipPath id="clip0_4177_281">
<rect width="133" height="63" fill="white"/>
</clipPath>
</defs>
</svg>
