<svg width="151" height="101" viewBox="0 0 151 101" fill="none" xmlns="http://www.w3.org/2000/svg">
<path d="M5.98618 87.3561C6.2652 87.4827 6.69641 87.6092 7.15298 87.6092C7.63493 87.6092 7.88858 87.432 7.88858 87.1536C7.88858 86.9005 7.66029 86.7486 7.12762 86.5714C6.36666 86.3183 5.85935 85.9386 5.85935 85.331C5.85935 84.6223 6.51885 84.0907 7.60956 84.0907C8.14223 84.0907 8.52271 84.1919 8.77637 84.2932L8.54808 85.0526C8.37052 84.9767 8.04077 84.8501 7.58419 84.8501C7.12762 84.8501 6.92469 85.0526 6.92469 85.2551C6.92469 85.5335 7.17835 85.6348 7.78712 85.8373C8.59881 86.1158 8.97929 86.4955 8.97929 87.0777C8.97929 87.7864 8.39589 88.3686 7.12762 88.3686C6.59495 88.3686 6.08764 88.2421 5.83398 88.1155L5.98618 87.3561Z" fill="#888888"/>
<path d="M14.4328 86.5714H12.7333V87.5586H14.6104V88.318H11.6934V84.1666H14.5343V84.926H12.7333V85.812H14.4328V86.5714Z" fill="#888888"/>
<path d="M20.7484 88.2168C20.5708 88.2927 20.1396 88.394 19.5816 88.394C17.9836 88.394 17.1719 87.4827 17.1719 86.2929C17.1719 84.8754 18.288 84.0907 19.683 84.0907C20.2157 84.0907 20.6216 84.1919 20.8245 84.2679L20.5962 85.002C20.3933 84.926 20.0889 84.8501 19.7338 84.8501C18.9221 84.8501 18.2626 85.3057 18.2626 86.2423C18.2626 87.0777 18.8206 87.6092 19.7338 87.6092C20.0635 87.6092 20.3933 87.5586 20.6216 87.4827L20.7484 88.2168Z" fill="#888888"/>
<path d="M24.5283 84.1666V86.5461C24.5283 87.2802 24.8326 87.6345 25.3653 87.6345C25.898 87.6345 26.2024 87.2802 26.2024 86.5461V84.1666H27.2424V86.4955C27.2424 87.7864 26.5321 88.3939 25.3146 88.3939C24.1478 88.3939 23.4883 87.8117 23.4883 86.4955V84.1666H24.5283Z" fill="#888888"/>
<path d="M30.21 84.2173C30.5397 84.1667 31.047 84.1161 31.6051 84.1161C32.2899 84.1161 32.7719 84.2173 33.1016 84.4452C33.3806 84.6477 33.5328 84.9261 33.5328 85.3058C33.5328 85.8374 33.127 86.1918 32.7211 86.3183V86.3437C33.0509 86.4702 33.2284 86.7234 33.3299 87.1284C33.4821 87.6093 33.6089 88.1409 33.7104 88.3181H32.645C32.5689 88.1915 32.4675 87.8625 32.3407 87.3562C32.2138 86.8246 32.0109 86.698 31.5797 86.698H31.2753V88.3434H30.2353V84.2173H30.21ZM31.2246 86.0146H31.6304C32.1631 86.0146 32.4675 85.7868 32.4675 85.4071C32.4675 85.0274 32.1885 84.8249 31.7065 84.8249C31.4529 84.8249 31.3007 84.8249 31.2246 84.8502V86.0146Z" fill="#888888"/>
<path d="M37.3632 84.1666H36.3232V88.318H37.3632V84.1666Z" fill="#888888"/>
<path d="M41.1931 84.9513H39.9502V84.1666H43.5013V84.9513H42.2331V88.318H41.1931V84.9513Z" fill="#888888"/>
<path d="M46.6724 87.2548L46.3427 88.318H45.252L46.6724 84.1666H48.0168L49.4626 88.318H48.3465L47.9914 87.2548H46.6724ZM47.8392 86.5461L47.5602 85.6601C47.4841 85.407 47.408 85.1032 47.3319 84.8501H47.3065C47.2558 85.1032 47.1797 85.407 47.1036 85.6601L46.8246 86.5461H47.8392Z" fill="#888888"/>
<path d="M55.8036 88.1409C55.4738 88.2422 54.865 88.3687 54.2563 88.3687C53.4192 88.3687 52.8104 88.1662 52.3792 87.8118C51.9734 87.4574 51.7197 86.9006 51.7197 86.293C51.7197 84.9008 52.8358 84.1161 54.3577 84.1161C54.9411 84.1161 55.3977 84.2173 55.626 84.3186L55.3977 85.078C55.1441 84.9767 54.8397 84.9008 54.3324 84.9008C53.4699 84.9008 52.8104 85.3564 52.8104 86.2424C52.8104 87.1031 53.4192 87.6093 54.2563 87.6093C54.4846 87.6093 54.6875 87.584 54.7636 87.5587V86.6727H54.0533V85.9386H55.7782V88.1409H55.8036Z" fill="#888888"/>
<path d="M63.1851 87.2548L62.8554 88.318H61.7646L63.1597 84.1666H64.5295L65.9753 88.318H64.8592L64.5041 87.2548H63.1851ZM64.3519 86.5461L64.0729 85.6601C63.9968 85.407 63.9207 85.1032 63.8446 84.8501H63.8192C63.7685 85.1032 63.6924 85.407 63.6163 85.6601L63.3373 86.5461H64.3519Z" fill="#888888"/>
<path d="M68.6639 87.3561C68.9429 87.4827 69.3741 87.6092 69.8053 87.6092C70.2873 87.6092 70.5409 87.432 70.5409 87.1536C70.5409 86.9005 70.3126 86.7486 69.78 86.5714C69.019 86.3183 68.5117 85.9386 68.5117 85.331C68.5117 84.6223 69.1712 84.0907 70.2619 84.0907C70.7946 84.0907 71.1751 84.1919 71.4287 84.2932L71.2004 85.0526C71.0229 84.9767 70.6931 84.8501 70.2365 84.8501C69.78 84.8501 69.577 85.0526 69.577 85.2551C69.577 85.5335 69.8307 85.6348 70.4395 85.8373C71.2512 86.1158 71.6316 86.4955 71.6316 87.0777C71.6316 87.7864 71.0482 88.3686 69.78 88.3686C69.2473 88.3686 68.74 88.2421 68.4863 88.1155L68.6639 87.3561Z" fill="#888888"/>
<path d="M74.4217 87.3561C74.7007 87.4827 75.1319 87.6092 75.5631 87.6092C76.0451 87.6092 76.2987 87.432 76.2987 87.1536C76.2987 86.9005 76.0704 86.7486 75.5378 86.5714C74.7768 86.3183 74.2695 85.9386 74.2695 85.331C74.2695 84.6223 74.929 84.0907 76.0197 84.0907C76.5524 84.0907 76.9329 84.1919 77.1865 84.2932L76.9582 85.0526C76.7807 84.9767 76.4509 84.8501 75.9943 84.8501C75.5378 84.8501 75.3348 85.0526 75.3348 85.2551C75.3348 85.5335 75.5885 85.6348 76.1973 85.8373C77.009 86.1158 77.3894 86.4955 77.3894 87.0777C77.3894 87.7864 76.806 88.3686 75.5378 88.3686C75.0051 88.3686 74.4978 88.2421 74.2441 88.1155L74.4217 87.3561Z" fill="#888888"/>
<path d="M82.8684 86.5714H81.1689V87.5586H83.0459V88.318H80.1289V84.1666H82.9698V84.926H81.1689V85.812H82.8684V86.5714Z" fill="#888888"/>
<path d="M89.7177 86.7233C89.6923 86.217 89.667 85.6348 89.667 85.002H89.6416C89.4894 85.5335 89.3118 86.1158 89.1343 86.622L88.5763 88.2421H87.7646L87.2826 86.6473C87.1304 86.1411 86.9782 85.5589 86.8768 85.0273H86.8514C86.826 85.5842 86.8007 86.2423 86.7753 86.7486L86.6738 88.318H85.71L86.0143 84.1666H87.4094L87.866 85.5589C88.0182 86.0398 88.145 86.5461 88.2465 87.0523H88.2719C88.3987 86.5714 88.5509 86.0398 88.7031 85.5589L89.185 84.1666H90.5547L90.8084 88.318H89.7938L89.7177 86.7233Z" fill="#888888"/>
<path d="M93.6484 84.2173C93.9275 84.1667 94.4601 84.1161 94.9928 84.1161C95.6269 84.1161 96.0074 84.1667 96.3625 84.3439C96.6923 84.4958 96.9206 84.7742 96.9206 85.1539C96.9206 85.5083 96.6923 85.8627 96.1596 86.0399C96.6923 86.1665 97.0728 86.5209 97.0728 87.0524C97.0728 87.4321 96.8698 87.7359 96.5908 87.9384C96.2611 88.1662 95.703 88.3181 94.7899 88.3181C94.2826 88.3181 93.9021 88.2928 93.6738 88.2675V84.2173H93.6484ZM94.6884 85.8121H95.0182C95.5762 85.8121 95.8552 85.6096 95.8552 85.3058C95.8552 84.9767 95.6016 84.8249 95.1196 84.8249C94.8913 84.8249 94.7645 84.8502 94.6884 84.8502V85.8121ZM94.6884 87.6599C94.7899 87.6853 94.9167 87.6853 95.0943 87.6853C95.5762 87.6853 95.982 87.5334 95.982 87.0777C95.982 86.6474 95.5762 86.4955 95.0435 86.4955H94.6884V87.6599Z" fill="#888888"/>
<path d="M99.8379 84.1666H100.878V87.5333H102.704V88.318H99.8379V84.1666Z" fill="#888888"/>
<path d="M105.672 88.318V86.622L104.227 84.1666H105.419L105.875 85.1538C106.028 85.4576 106.129 85.6854 106.23 85.9386H106.256C106.357 85.6854 106.459 85.4323 106.611 85.1538L107.067 84.1666H108.234L106.712 86.5967V88.3433H105.672V88.318Z" fill="#888888"/>
<path d="M118.051 88.1409C117.746 88.2422 117.112 88.3687 116.503 88.3687C115.666 88.3687 115.058 88.1662 114.626 87.8118C114.195 87.4574 113.967 86.9006 113.967 86.293C113.967 84.9008 115.083 84.1161 116.605 84.1161C117.188 84.1161 117.67 84.2173 117.873 84.3186L117.645 85.078C117.391 84.9767 117.087 84.9008 116.579 84.9008C115.717 84.9008 115.058 85.3564 115.058 86.2424C115.058 87.1031 115.666 87.6093 116.503 87.6093C116.732 87.6093 116.935 87.584 117.011 87.5587V86.6727H116.3V85.9386H118.025V88.1409H118.051Z" fill="#888888"/>
<path d="M120.917 84.2173C121.247 84.1667 121.754 84.1161 122.312 84.1161C122.997 84.1161 123.479 84.2173 123.809 84.4452C124.088 84.6477 124.24 84.9261 124.24 85.3058C124.24 85.8374 123.809 86.1918 123.428 86.3183V86.3437C123.758 86.4702 123.935 86.7234 124.037 87.1284C124.189 87.6093 124.316 88.1409 124.392 88.3181H123.327C123.251 88.1915 123.149 87.8625 123.022 87.3562C122.895 86.8246 122.693 86.698 122.261 86.698H121.957V88.3434H120.917V84.2173ZM121.957 86.0146H122.363C122.87 86.0146 123.2 85.7868 123.2 85.4071C123.2 85.0274 122.921 84.8249 122.439 84.8249C122.185 84.8249 122.033 84.8249 121.957 84.8502V86.0146Z" fill="#888888"/>
<path d="M128.958 88.394C127.588 88.394 126.802 87.4574 126.802 86.2676C126.802 85.0273 127.69 84.0907 129.034 84.0907C130.454 84.0907 131.215 85.0526 131.215 86.1917C131.215 87.5839 130.302 88.394 128.958 88.394ZM128.983 87.6599C129.693 87.6599 130.099 87.0524 130.099 86.2423C130.099 85.4829 129.719 84.8501 128.983 84.8501C128.273 84.8501 127.867 85.4829 127.867 86.2676C127.867 87.027 128.298 87.6599 128.983 87.6599Z" fill="#888888"/>
<path d="M134.994 84.1666V86.5461C134.994 87.2802 135.298 87.6345 135.831 87.6345C136.389 87.6345 136.694 87.2802 136.694 86.5461V84.1666H137.734V86.4955C137.734 87.7864 137.023 88.3939 135.806 88.3939C134.639 88.3939 133.979 87.8117 133.979 86.4955V84.1666H134.994Z" fill="#888888"/>
<path d="M140.651 84.2173C140.981 84.1667 141.412 84.1414 142.072 84.1414C142.706 84.1414 143.188 84.2426 143.492 84.4704C143.797 84.6729 143.974 85.0273 143.974 85.4323C143.974 85.8373 143.822 86.1917 143.568 86.4196C143.213 86.7233 142.681 86.8499 142.072 86.8499C141.945 86.8499 141.818 86.8499 141.717 86.8246V88.318H140.677V84.2173H140.651ZM141.691 86.1158C141.793 86.1411 141.894 86.1411 142.046 86.1411C142.605 86.1411 142.934 85.888 142.934 85.4577C142.934 85.078 142.655 84.8501 142.123 84.8501C141.92 84.8501 141.767 84.8754 141.691 84.8754V86.1158Z" fill="#888888"/>
<path d="M31.3262 25.1361H44.922C44.922 25.1361 46.5961 25.1614 46.5961 26.8321V38.9572C46.5961 38.9572 44.5923 27.5662 31.3262 25.1361Z" fill="#F29600"/>
<path d="M36.2979 16.3777H53.3941C53.3941 16.3777 55.4994 16.403 55.4994 18.504V33.7679C55.5248 33.7679 53.0136 19.4406 36.2979 16.3777Z" fill="#91308C"/>
<path d="M43.7305 7.39148H63.5662C63.5662 7.39148 66.0013 7.44211 66.0013 9.87218V27.5662C66.0013 27.5409 63.1096 10.9353 43.7305 7.39148Z" fill="#3684C6"/>
<path d="M30.2099 44.0451C26.3543 42.83 23.6656 42.2731 21.0276 40.2481C21.0023 40.2227 21.0023 40.2228 20.9769 40.1974C20.9515 40.1721 20.9008 40.1215 20.8754 40.0962C15.6248 34.7551 20.5964 28.7305 28.1299 26.2245C29.0177 25.9207 28.9162 25.1613 28.1299 25.136C27.7241 25.136 27.3182 25.1107 26.9124 25.1107C12.2766 25.1107 3.65234 31.0847 3.65234 40.2734C3.65234 51.5884 14.6609 55.5373 23.5134 58.2205C28.967 59.8912 33.7103 61.3087 33.7103 64.0426C33.7103 67.5105 28.1807 67.2573 25.7963 67.2573C18.136 67.2573 8.70005 62.8022 4.84452 60.3215V72.7756C8.95371 75.0538 17.375 77.9902 26.9124 77.9902C41.1424 77.9902 50.35 71.7378 50.35 62.0175C50.3753 50.9303 39.1892 46.8295 30.2099 44.0451Z" fill="black"/>
<path d="M144.735 69.5862V49.6647C144.76 46.0955 140.753 46.3739 140.753 46.3739H122.008C122.008 46.3739 119.37 46.1714 119.42 48.399V53.9173C119.42 53.9173 119.243 56.1449 121.729 56.0183H131.697C132.128 56.0436 133.447 56.2714 133.422 57.689V66.1689C133.397 67.2574 132.052 67.308 132.002 67.308H121.982C117.34 67.308 114.094 65.5361 112.267 62.0935C111.101 59.8153 110.492 56.3727 110.492 51.8922C110.492 47.2599 111.075 43.6401 112.191 41.1594C113.967 37.2612 117.264 35.2867 121.982 35.2867H141.209C144.659 35.5652 144.253 32.8819 144.253 32.8819V27.6674C144.405 25.6424 141.894 25.8449 141.894 25.8449H122.008C113.13 25.8449 106.738 28.4774 102.958 33.6667C102.882 33.7679 102.831 33.8692 102.755 33.9704C102.4 34.4514 102.147 34.8817 101.944 35.2361C99.5339 39.4128 98.3164 45.1336 98.3164 52.3985C98.3164 57.0561 98.9759 61.1316 100.32 64.5236C101.639 67.8902 103.542 70.6241 106.002 72.6238C107.93 74.2185 110.061 75.383 112.293 76.0664C113.231 76.3955 114.652 76.6486 116.529 76.8764L122.033 77.1549H136.263C136.238 77.1549 145.395 77.813 144.735 69.5862Z" fill="black"/>
<path d="M49.1836 76.4714L69.6789 27.1358C69.6789 27.1358 70.0086 25.6676 71.5559 25.8195H80.9411C80.9411 25.8195 82.1332 25.7436 82.2601 26.6801L103.085 76.3954C103.085 76.3954 103.947 77.7117 102.426 77.5345H91.5184C91.5184 77.5345 90.377 77.7877 89.9965 76.6739L75.9695 41.539C75.9695 41.539 75.8426 40.4759 75.2339 41.4631L61.9424 76.3954C61.9424 76.3954 61.4858 77.8636 60.5473 77.5852H49.8431C49.7671 77.6105 48.4988 77.6105 49.1836 76.4714Z" fill="black"/>
</svg>
