<svg width="133" height="89" viewBox="0 0 133 89" fill="none" xmlns="http://www.w3.org/2000/svg">
<path d="M5.27272 76.9772C5.51848 77.0887 5.89829 77.2002 6.30044 77.2002C6.72493 77.2002 6.94835 77.0441 6.94835 76.7987C6.94835 76.5757 6.74727 76.4418 6.2781 76.2857C5.60785 76.0626 5.16101 75.7281 5.16101 75.1927C5.16101 74.5682 5.7419 74.0997 6.70259 74.0997C7.17176 74.0997 7.50689 74.189 7.73031 74.2782L7.52923 74.9473C7.37284 74.8804 7.0824 74.7689 6.68025 74.7689C6.2781 74.7689 6.09936 74.9473 6.09936 75.1258C6.09936 75.3712 6.32278 75.4604 6.85898 75.6388C7.57391 75.8842 7.90904 76.2188 7.90904 76.7318C7.90904 77.3564 7.39518 77.8694 6.2781 77.8694C5.80892 77.8694 5.36209 77.7579 5.13867 77.6463L5.27272 76.9772Z" fill="#888888"/>
<path d="M12.7127 76.2857H11.2158V77.1556H12.8691V77.8248H10.2998V74.1666H12.8021V74.8358H11.2158V75.6165H12.7127V76.2857Z" fill="#888888"/>
<path d="M18.2752 77.7356C18.1188 77.8025 17.739 77.8917 17.2475 77.8917C15.8399 77.8917 15.125 77.0887 15.125 76.0403C15.125 74.7912 16.108 74.0997 17.3368 74.0997C17.806 74.0997 18.1635 74.189 18.3422 74.2559L18.1411 74.9027C17.9624 74.8358 17.6943 74.7689 17.3815 74.7689C16.6666 74.7689 16.0857 75.1704 16.0857 75.9957C16.0857 76.7318 16.5772 77.2002 17.3815 77.2002C17.672 77.2002 17.9624 77.1556 18.1635 77.0887L18.2752 77.7356Z" fill="#888888"/>
<path d="M21.6045 74.1666V76.2634C21.6045 76.9102 21.8726 77.2225 22.3418 77.2225C22.8109 77.2225 23.079 76.9102 23.079 76.2634V74.1666H23.995V76.2188C23.995 77.3564 23.3695 77.8917 22.2971 77.8917C21.2694 77.8917 20.6885 77.3787 20.6885 76.2188V74.1666H21.6045Z" fill="#888888"/>
<path d="M26.6094 74.2113C26.8998 74.1667 27.3467 74.1221 27.8382 74.1221C28.4414 74.1221 28.8659 74.2113 29.1563 74.412C29.4021 74.5905 29.5361 74.8359 29.5361 75.1704C29.5361 75.6389 29.1787 75.9511 28.8212 76.0627V76.085C29.1116 76.1965 29.268 76.4196 29.3574 76.7765C29.4915 77.2003 29.6032 77.6687 29.6925 77.8248H28.7542C28.6872 77.7133 28.5978 77.4233 28.4861 76.9772C28.3744 76.5088 28.1956 76.3973 27.8158 76.3973H27.5477V77.8471H26.6317V74.2113H26.6094ZM27.503 75.795H27.8605C28.3297 75.795 28.5978 75.5943 28.5978 75.2597C28.5978 74.9251 28.352 74.7466 27.9275 74.7466C27.7041 74.7466 27.5701 74.7466 27.503 74.7689V75.795Z" fill="#888888"/>
<path d="M32.9092 74.1666H31.9932V77.8248H32.9092V74.1666Z" fill="#888888"/>
<path d="M36.2832 74.8581H35.1885V74.1666H38.3163V74.8581H37.1992V77.8248H36.2832V74.8581Z" fill="#888888"/>
<path d="M41.1086 76.8879L40.8181 77.8248H39.8574L41.1086 74.1666H42.2927L43.5661 77.8248H42.5831L42.2703 76.8879H41.1086ZM42.1363 76.2634L41.8905 75.4827C41.8235 75.2596 41.7565 74.9919 41.6894 74.7689H41.6671C41.6224 74.9919 41.5554 75.2596 41.4884 75.4827L41.2426 76.2634H42.1363Z" fill="#888888"/>
<path d="M49.1517 77.6687C48.8613 77.7579 48.3251 77.8694 47.7889 77.8694C47.0516 77.8694 46.5154 77.691 46.1356 77.3787C45.7781 77.0664 45.5547 76.5757 45.5547 76.0404C45.5547 74.8136 46.5377 74.1221 47.8782 74.1221C48.3921 74.1221 48.7942 74.2113 48.9953 74.3005L48.7942 74.9697C48.5708 74.8805 48.3027 74.8136 47.8559 74.8136C47.0963 74.8136 46.5154 75.2151 46.5154 75.9958C46.5154 76.7542 47.0516 77.2003 47.7889 77.2003C47.9899 77.2003 48.1687 77.178 48.2357 77.1557V76.375H47.6101V75.7281H49.1294V77.6687H49.1517Z" fill="#888888"/>
<path d="M55.6535 76.8879L55.363 77.8248H54.4023L55.6311 74.1666H56.8376L58.1111 77.8248H57.128L56.8152 76.8879H55.6535ZM56.6812 76.2634L56.4354 75.4827C56.3684 75.2596 56.3014 74.9919 56.2344 74.7689H56.212C56.1673 74.9919 56.1003 75.2596 56.0333 75.4827L55.7875 76.2634H56.6812Z" fill="#888888"/>
<path d="M60.4787 76.9772C60.7244 77.0887 61.1042 77.2002 61.484 77.2002C61.9085 77.2002 62.1319 77.0441 62.1319 76.7987C62.1319 76.5757 61.9309 76.4418 61.4617 76.2857C60.7914 76.0626 60.3446 75.7281 60.3446 75.1927C60.3446 74.5682 60.9255 74.0997 61.8862 74.0997C62.3554 74.0997 62.6905 74.189 62.9139 74.2782L62.7128 74.9473C62.5564 74.8804 62.266 74.7689 61.8638 74.7689C61.4617 74.7689 61.283 74.9473 61.283 75.1258C61.283 75.3712 61.5064 75.4604 62.0426 75.6388C62.7575 75.8842 63.0926 76.2188 63.0926 76.7318C63.0926 77.3564 62.5788 77.8694 61.4617 77.8694C60.9925 77.8694 60.5457 77.7579 60.3223 77.6463L60.4787 76.9772Z" fill="#888888"/>
<path d="M65.5509 76.9772C65.7967 77.0887 66.1765 77.2002 66.5563 77.2002C66.9808 77.2002 67.2042 77.0441 67.2042 76.7987C67.2042 76.5757 67.0031 76.4418 66.534 76.2857C65.8637 76.0626 65.4169 75.7281 65.4169 75.1927C65.4169 74.5682 65.9978 74.0997 66.9584 74.0997C67.4276 74.0997 67.7627 74.189 67.9862 74.2782L67.7851 74.9473C67.6287 74.8804 67.3383 74.7689 66.9361 74.7689C66.534 74.7689 66.3552 74.9473 66.3552 75.1258C66.3552 75.3712 66.5786 75.4604 67.1148 75.6388C67.8298 75.8842 68.1649 76.2188 68.1649 76.7318C68.1649 77.3564 67.651 77.8694 66.534 77.8694C66.0648 77.8694 65.6179 77.7579 65.3945 77.6463L65.5509 76.9772Z" fill="#888888"/>
<path d="M72.9901 76.2857H71.4932V77.1556H73.1464V77.8248H70.5771V74.1666H73.0794V74.8358H71.4932V75.6165H72.9901V76.2857Z" fill="#888888"/>
<path d="M79.0222 76.4195C78.9998 75.9734 78.9775 75.4604 78.9775 74.9027H78.9551C78.8211 75.3711 78.6647 75.8842 78.5083 76.3303L78.0168 77.7579H77.3019L76.8774 76.3526C76.7433 75.9065 76.6093 75.3934 76.5199 74.925H76.4976C76.4752 75.4157 76.4529 75.9957 76.4305 76.4418L76.3412 77.8248H75.4922L75.7603 74.1666H76.9891L77.3912 75.3934C77.5253 75.8173 77.637 76.2634 77.7264 76.7095H77.7487C77.8604 76.2857 77.9945 75.8173 78.1285 75.3934L78.553 74.1666H79.7594L79.9829 77.8248H79.0892L79.0222 76.4195Z" fill="#888888"/>
<path d="M82.4854 74.2113C82.7311 74.1667 83.2003 74.1221 83.6695 74.1221C84.228 74.1221 84.5631 74.1667 84.8759 74.3228C85.1663 74.4567 85.3674 74.702 85.3674 75.0366C85.3674 75.3489 85.1664 75.6612 84.6972 75.8173C85.1664 75.9288 85.5015 76.2411 85.5015 76.7095C85.5015 77.0441 85.3227 77.3118 85.077 77.4902C84.7865 77.691 84.295 77.8248 83.4907 77.8248C83.0439 77.8248 82.7088 77.8025 82.5077 77.7802V74.2113H82.4854ZM83.4014 75.6166H83.6918C84.1833 75.6166 84.4291 75.4381 84.4291 75.1704C84.4291 74.8805 84.2057 74.7466 83.7812 74.7466C83.5801 74.7466 83.4684 74.7689 83.4014 74.7689V75.6166ZM83.4014 77.2449C83.4907 77.2672 83.6024 77.2672 83.7588 77.2672C84.1833 77.2672 84.5408 77.1334 84.5408 76.7318C84.5408 76.3526 84.1833 76.2188 83.7141 76.2188H83.4014V77.2449Z" fill="#888888"/>
<path d="M87.9365 74.1666H88.8525V77.1333H90.4611V77.8248H87.9365V74.1666Z" fill="#888888"/>
<path d="M93.0752 77.8248V76.3303L91.8018 74.1666H92.8518L93.254 75.0365C93.388 75.3042 93.4774 75.505 93.5667 75.728H93.5891C93.6785 75.505 93.7678 75.2819 93.9019 75.0365L94.304 74.1666H95.3317L93.9912 76.308V77.8471H93.0752V77.8248Z" fill="#888888"/>
<path d="M103.978 77.6687C103.71 77.7579 103.151 77.8694 102.615 77.8694C101.878 77.8694 101.342 77.691 100.962 77.3787C100.582 77.0664 100.381 76.5757 100.381 76.0404C100.381 74.8136 101.364 74.1221 102.704 74.1221C103.218 74.1221 103.643 74.2113 103.821 74.3005L103.62 74.9697C103.397 74.8805 103.129 74.8136 102.682 74.8136C101.922 74.8136 101.342 75.2151 101.342 75.9958C101.342 76.7542 101.878 77.2003 102.615 77.2003C102.816 77.2003 102.995 77.178 103.062 77.1557V76.375H102.436V75.7281H103.956V77.6687H103.978Z" fill="#888888"/>
<path d="M106.503 74.2113C106.793 74.1667 107.24 74.1221 107.732 74.1221C108.335 74.1221 108.759 74.2113 109.05 74.412C109.296 74.5905 109.43 74.8359 109.43 75.1704C109.43 75.6389 109.05 75.9511 108.715 76.0627V76.085C109.005 76.1965 109.162 76.4196 109.251 76.7765C109.385 77.2003 109.497 77.6687 109.564 77.8248H108.625C108.558 77.7133 108.469 77.4233 108.357 76.9772C108.246 76.5088 108.067 76.3973 107.687 76.3973H107.419V77.8471H106.503V74.2113ZM107.419 75.795H107.776C108.223 75.795 108.514 75.5943 108.514 75.2597C108.514 74.9251 108.268 74.7466 107.843 74.7466C107.62 74.7466 107.486 74.7466 107.419 74.7689V75.795Z" fill="#888888"/>
<path d="M113.586 77.8917C112.379 77.8917 111.687 77.0664 111.687 76.018C111.687 74.925 112.468 74.0997 113.653 74.0997C114.904 74.0997 115.574 74.9473 115.574 75.9511C115.574 77.1779 114.77 77.8917 113.586 77.8917ZM113.608 77.2448C114.233 77.2448 114.591 76.7095 114.591 75.9957C114.591 75.3265 114.256 74.7689 113.608 74.7689C112.982 74.7689 112.625 75.3265 112.625 76.018C112.625 76.6872 113.005 77.2448 113.608 77.2448Z" fill="#888888"/>
<path d="M118.902 74.1666V76.2634C118.902 76.9102 119.171 77.2225 119.64 77.2225C120.131 77.2225 120.399 76.9102 120.399 76.2634V74.1666H121.315V76.2188C121.315 77.3564 120.69 77.8917 119.617 77.8917C118.59 77.8917 118.009 77.3787 118.009 76.2188V74.1666H118.902Z" fill="#888888"/>
<path d="M123.885 74.2113C124.175 74.1667 124.555 74.1444 125.136 74.1444C125.694 74.1444 126.119 74.2336 126.387 74.4344C126.655 74.6128 126.812 74.9251 126.812 75.282C126.812 75.6389 126.677 75.9512 126.454 76.1519C126.141 76.4196 125.672 76.5311 125.136 76.5311C125.024 76.5311 124.912 76.5311 124.823 76.5088V77.8249H123.907V74.2113H123.885ZM124.801 75.8843C124.89 75.9066 124.98 75.9066 125.114 75.9066C125.605 75.9066 125.896 75.6835 125.896 75.3043C125.896 74.9697 125.65 74.769 125.181 74.769C125.002 74.769 124.868 74.7913 124.801 74.7913V75.8843Z" fill="#888888"/>
<path d="M27.5918 22.1497H39.5669C39.5669 22.1497 41.0415 22.172 41.0415 23.6441V34.3286C41.0415 34.3286 39.2765 24.291 27.5918 22.1497Z" fill="#F29600"/>
<path d="M31.9707 14.4318H47.029C47.029 14.4318 48.8834 14.4541 48.8834 16.3054V29.7558C48.9057 29.7558 46.6939 17.1308 31.9707 14.4318Z" fill="#91308C"/>
<path d="M38.5176 6.51331H55.9888C55.9888 6.51331 58.1336 6.55792 58.1336 8.69927V24.291C58.1336 24.2687 55.5866 9.63611 38.5176 6.51331Z" fill="#3684C6"/>
<path d="M26.6095 38.812C23.2136 37.7414 20.8454 37.2506 18.5218 35.4662C18.4995 35.4439 18.4995 35.4439 18.4771 35.4216C18.4548 35.3993 18.4101 35.3546 18.3878 35.3323C13.763 30.6258 18.142 25.317 24.7775 23.1088C25.5594 22.8411 25.4701 22.1719 24.7775 22.1496C24.42 22.1496 24.0626 22.1273 23.7051 22.1273C10.8139 22.1273 3.21777 27.3915 3.21777 35.4885C3.21777 45.4592 12.9141 48.9388 20.7113 51.3033C25.5148 52.7754 29.6927 54.0246 29.6927 56.4336C29.6927 59.4895 24.8222 59.2664 22.7221 59.2664C15.9749 59.2664 7.66377 55.3406 4.26783 53.1546V64.1291C7.88718 66.1366 15.3046 68.7241 23.7051 68.7241C36.2388 68.7241 44.3488 63.2145 44.3488 54.6491C44.3711 44.8792 34.5185 41.2657 26.6095 38.812Z" fill="black"/>
<path d="M127.482 61.3186V43.764C127.504 40.6189 123.974 40.8642 123.974 40.8642H107.464C107.464 40.8642 105.14 40.6858 105.185 42.6487V47.5113C105.185 47.5113 105.029 49.4742 107.218 49.3627H115.998C116.378 49.385 117.54 49.5858 117.518 50.8349V58.3073C117.495 59.2665 116.311 59.3111 116.266 59.3111H107.441C103.353 59.3111 100.493 57.7497 98.8846 54.7161C97.8569 52.7086 97.3207 49.675 97.3207 45.7269C97.3207 41.6449 97.8345 38.4552 98.8176 36.2692C100.381 32.8341 103.286 31.0943 107.441 31.0943H124.376C127.415 31.3397 127.057 28.9752 127.057 28.9752V24.3803C127.192 22.5958 124.98 22.7742 124.98 22.7742H107.464C99.6442 22.7742 94.0141 25.094 90.6852 29.6667C90.6182 29.7559 90.5735 29.8452 90.5065 29.9344C90.1937 30.3582 89.9703 30.7374 89.7915 31.0497C87.6691 34.7301 86.5967 39.7712 86.5967 46.173C86.5967 50.2773 87.1776 53.8685 88.3617 56.8575C89.5234 59.8241 91.1991 62.2331 93.3662 63.9953C95.0642 65.4006 96.9409 66.4266 98.9069 67.0289C99.7336 67.3189 100.985 67.5419 102.638 67.7427L107.486 67.988H120.02C119.997 67.988 128.063 68.568 127.482 61.3186Z" fill="black"/>
<path d="M43.3207 67.3857L61.3728 23.9118C61.3728 23.9118 61.6632 22.6181 63.026 22.7519H71.2925C71.2925 22.7519 72.3425 22.685 72.4542 23.5103L90.7967 67.3188C90.7967 67.3188 91.5564 68.4787 90.2159 68.3226H80.6089C80.6089 68.3226 79.6036 68.5456 79.2684 67.5642L66.9135 36.6038C66.9135 36.6038 66.8018 35.6669 66.2656 36.5369L54.5585 67.3188C54.5585 67.3188 54.1564 68.6125 53.3297 68.3672H43.9016C43.8345 68.3895 42.7174 68.3895 43.3207 67.3857Z" fill="black"/>
</svg>
