<?xml version="1.0" encoding="utf-8"?>
<!-- Generator: Adobe Illustrator 26.1.0, SVG Export Plug-In . SVG Version: 6.00 Build 0)  -->
<svg version="1.1" id="圖層_1" xmlns="http://www.w3.org/2000/svg" xmlns:xlink="http://www.w3.org/1999/xlink" x="0px" y="0px"
	 viewBox="0 0 217.5 77.8" style="enable-background:new 0 0 217.5 77.8;" xml:space="preserve">
<style type="text/css">
	.st0{fill:#E7372F;}
	.st1{fill-rule:evenodd;clip-rule:evenodd;fill:#E7372F;}
	.st2{fill:#005EAC;}
</style>
<g>
	<g>
		<g>
			<circle class="st0" cx="7.5" cy="40.6" r="6"/>
		</g>
		<path class="st0" d="M37,36.4C37,36.4,37,36.4,37,36.4c-1.2-1.2-3.1-1.8-4.7-1.8c-1.7,0-3.3-0.6-4.5-1.8c-1.2-1.2-1.9-2.8-1.9-4.5
			c0.1-1.8-0.7-3.7-2.3-5c-2.1-1.7-5.3-1.6-7.4,0.1c-2.9,2.3-3,6.5-0.5,9c1.2,1.2,2.8,1.8,4.4,1.8c1.7,0,3.3,0.6,4.5,1.8l0,0
			c1.2,1.2,2.2,2.8,2.2,4.5c0,0.1,0,0.2,0,0.3c0,0,0,0,0,0c0,1.7-0.9,3.3-2.1,4.5c-1.2,1.2-2.8,1.9-4.5,1.9c-1.8-0.1-3.7,0.7-5,2.3
			c-1.7,2.1-1.6,5.3,0.1,7.4c2.3,2.9,6.5,3,9,0.5c1.2-1.2,1.8-2.8,1.8-4.4c0-1.7,0.6-3.3,1.8-4.5l0,0c1.2-1.2,2.8-1.9,4.5-1.9
			c1.1,0,2.4-0.2,3.4-0.7c0,0,0,0,0,0c0.7-0.4,1.4-0.9,1.9-1.6c0.1-0.1,0.1-0.2,0.2-0.3c0.1-0.1,0.1-0.2,0.2-0.3
			c0.1-0.2,0.2-0.4,0.3-0.6c0.1-0.1,0.1-0.3,0.2-0.4c0-0.1,0.1-0.3,0.1-0.4c0.1-0.2,0.1-0.4,0.1-0.6c0-0.1,0-0.2,0.1-0.3
			c0-0.2,0-0.5,0.1-0.7c0-0.1,0-0.2,0-0.2c0-0.3,0-0.5-0.1-0.8c0-0.1,0-0.1,0-0.2c0-0.2-0.1-0.5-0.2-0.7c0-0.1,0-0.1-0.1-0.2
			c-0.1-0.2-0.2-0.5-0.3-0.7c0-0.1-0.1-0.2-0.1-0.2c-0.1-0.2-0.3-0.4-0.4-0.6c0,0,0-0.1-0.1-0.1c0,0,0,0,0,0c0-0.1-0.1-0.1-0.1-0.2
			C37.2,36.6,37.1,36.5,37,36.4z"/>
	</g>
	<path class="st1" d="M112.2,26.6c0.7-0.3,1.2-0.9,1.6-1.5c1.6-3.2-0.7-6.3-3.6-6.3c-2.3,0-4.2,1.9-4.2,4.2
		C106,25.9,109.1,28.1,112.2,26.6z"/>
	<g>
		<path class="st2" d="M69.8,29.9c-2,0-4,0-6,0v15.9c0,0.5-0.5,1.4-1.5,2.5c-1,1.2-2.1,1.7-3.5,1.7c-2.4,0-3.6-1.6-3.6-4.7V29.9
			h-7.2v15.9c0,3,0.8,5.3,2.3,6.9c1.6,1.7,3.6,2.5,6.1,2.5c2.8,0,5.3-1.3,7.4-4v3.6H71V31.1c0-0.4-0.2-0.7-0.4-0.9
			C70.5,30.1,70.2,29.9,69.8,29.9z"/>
		<path class="st2" d="M112.5,29.9h-6c0,7.1,0,14.1,0,21.2c0,1,0.3,1.8,1.1,2.5c0.7,0.7,1.3,1,2.5,1.1c1.2,0,2.4,0,3.6,0V31.2
			c0-0.3-0.1-0.7-0.4-0.9C113.1,30,112.8,29.9,112.5,29.9z"/>
		<path class="st2" d="M91.8,29.4c-2.9,0-5.3,1.3-7.5,4v-2.3v-1.3h-7.2v21.2c0,1.1,0.4,1.9,1.1,2.6c0.7,0.6,1.5,1,2.5,1h3.6v-16
			c1.7-2.8,3.3-4.1,5-4.1c2.4,0,3.6,1.7,3.6,5v15.2h7.2V39c0-3.1-0.8-5.4-2.4-7.1C96.2,30.2,94.2,29.4,91.8,29.4z"/>
		<path class="st2" d="M213.6,31.9c-1.6-1.7-3.6-2.5-6.1-2.5c-2.8,0-5.3,1.4-7.3,4.1h-0.1V21c0-0.2,0-0.6-0.4-0.9
			c-0.3-0.3-0.5-0.4-0.9-0.4h-6v31.4c0,1.1,0.5,2.1,1.1,2.6c0.8,0.7,1.6,1,2.6,1.1c1.2,0,2.4,0,3.6,0V38.9c1.6-2.5,3.2-3.8,4.8-3.8
			c2.5,0,4,1.8,4,5.4v14.2h6.9V38.9C216,35.9,215.2,33.6,213.6,31.9z"/>
		<path class="st2" d="M135.9,29.9c-2.4,0-4.7,0-7.1,0v-8.2c-8.3,0.9-3.7,5.6-7.7,7.5c-4.7,2.1-3.8,3.6-4,6.1h4.5v10.7
			c0,3.1,0.8,5.4,2.3,6.9c1.6,1.6,3.8,2.4,6.6,2.4c2.1,0,4.4-0.5,6.7-1.6V48c-1.7,1-3.3,1.4-4.8,1.4c-1.1,0-1.9-0.3-2.6-1.1
			c-0.6-0.7-0.9-1.7-0.9-2.9V35.2h8.3v-4.1c0-0.3-0.1-0.6-0.4-0.9C136.5,30,136.3,29.9,135.9,29.9z"/>
		<path class="st2" d="M176.7,47.6c-1.3-1.3-1.9-3.1-1.9-5.3c0-2.2,0.7-3.9,1.9-5.2c1.3-1.3,3.6-2,5.8-2c1.9,0,3.9,0.6,5.9,1.7V31
			c-2.7-1.1-5.3-1.6-7.7-1.6c-3.8,0-6.9,1.2-9.3,3.7c-2.4,2.5-3.7,5.6-3.7,9.4c0,3.9,1.2,7,3.6,9.3c2.4,2.4,5.6,3.5,9.7,3.5
			c2.4,0,4.9-0.6,7.7-1.7V48c-2.8,1.1-4.9,1.7-6.5,1.7C180.2,49.7,178,49,176.7,47.6z"/>
		<path class="st2" d="M152.8,29.4c-0.2,0-0.3,0-0.5,0c-3.5,0-6.4,1.2-8.7,3.7c-2.3,2.4-3.4,5.5-3.4,9.4c0,3.9,1.2,7,3.6,9.3
			c2.3,2.2,5.3,3.4,9,3.5c0.2,0,0.5,0,0.7,0c4.1,0,7.5-1.1,10.3-3.3v-4.9c-3,2.4-5.8,3.5-8.5,3.5c-0.9,0-1.7-0.1-2.4-0.3
			c-1.1-0.3-2.1-0.8-2.9-1.5c-1.3-1.2-2.3-3-2.5-5.2h5.4h11.3c0.2-4.3-0.9-7.8-3.2-10.3C158.8,30.8,156.1,29.5,152.8,29.4z
			 M152.8,39.5h-5.3c0.3-3.6,2.3-5.4,5.3-5.4c2.9,0,4.6,1.8,5,5.4H152.8z"/>
	</g>
</g>
</svg>
