<svg width="589" height="111" viewBox="0 0 589 111" fill="none" xmlns="http://www.w3.org/2000/svg">
<g clip-path="url(#clip0_4168_326)">
<path d="M16.5019 76.4167C25.6156 76.4167 33.0038 69.0326 33.0038 59.9239C33.0038 50.8152 25.6156 43.4312 16.5019 43.4312C7.38815 43.4312 0 50.8152 0 59.9239C0 69.0326 7.38815 76.4167 16.5019 76.4167Z" fill="#E7372F"/>
<path d="M97.638 48.379C94.3376 45.0804 89.112 43.4311 84.7115 43.4311C80.036 43.4311 75.6354 41.7819 72.3351 38.4833C69.0347 35.1847 67.1095 30.7867 67.1095 26.1137C67.3845 21.1659 65.1842 15.9432 60.7837 12.3698C55.0081 7.6968 46.2071 7.97168 40.4314 12.6446C32.4555 18.9669 32.1804 30.5118 39.0562 37.3838C42.3566 40.6823 46.7571 42.3316 51.1576 42.3316C55.8332 42.3316 60.2337 43.9809 63.5341 47.2794C66.8344 50.578 69.5848 54.9761 69.5848 59.649C69.5848 59.9239 69.5848 60.1988 69.5848 60.4737C69.5848 65.1466 67.1095 69.5447 63.8091 72.8432C60.5087 76.1418 56.1082 78.066 51.4327 78.066C46.4821 77.7911 41.2565 79.9901 37.6811 84.3882C33.0055 90.1607 33.2806 98.9568 37.9561 104.729C44.2818 112.701 55.8332 112.976 62.709 106.104C66.0093 102.805 67.6595 98.407 67.6595 94.009C67.6595 89.336 69.3097 84.9379 72.6101 81.6394C75.9105 78.3408 80.311 76.4167 84.9865 76.4167C88.0119 76.4167 91.5873 75.8669 94.3376 74.4925C96.2628 73.393 98.1881 72.0186 99.5632 70.0944C99.8382 69.8196 99.8382 69.5447 100.113 69.2698C100.388 68.9949 100.388 68.7201 100.663 68.4452C100.938 67.8954 101.213 67.3456 101.488 66.7959C101.763 66.521 101.763 65.9713 102.038 65.6964C102.038 65.4215 102.314 64.8717 102.314 64.5969C102.589 64.0471 102.589 63.4973 102.589 62.9476C102.589 62.6727 102.589 62.3978 102.864 62.1229C102.864 61.5732 102.864 60.7485 103.139 60.1988C103.139 59.9239 103.139 59.649 103.139 59.649C103.139 58.8244 103.139 58.2746 102.864 57.45C102.864 57.1751 102.864 57.1751 102.864 56.9002C102.864 56.3505 102.589 55.5258 102.314 54.9761C102.314 54.7012 102.314 54.7012 102.038 54.4263C101.763 53.8766 101.488 53.0519 101.213 52.5022C101.213 52.2273 100.938 51.9524 100.938 51.9524C100.663 51.4026 100.113 50.8529 99.8382 50.3031C99.8382 50.3031 99.8382 50.0282 99.5632 50.0282C99.5632 49.7534 99.2882 49.7534 99.2882 49.4785C98.188 48.9287 97.913 48.6539 97.638 48.379Z" fill="#E7372F"/>
<path fill-rule="evenodd" clip-rule="evenodd" d="M304.461 21.4406C306.386 20.616 307.762 18.9667 308.862 17.3174C313.262 8.52127 306.936 0 298.961 0C292.635 0 287.409 5.22271 287.409 11.5449C287.409 19.5164 295.935 25.5638 304.461 21.4406Z" fill="#E7372F"/>
<path d="M187.848 30.5117C182.347 30.5117 176.846 30.5117 171.346 30.5117V74.2176C171.346 75.592 169.97 78.0659 167.22 81.0895C164.47 84.3881 161.444 85.7625 157.594 85.7625C150.993 85.7625 147.693 81.3644 147.693 72.8432V30.5117H127.891V74.2176C127.891 82.4639 130.091 88.7862 134.216 93.1842C138.617 97.8572 144.117 100.056 150.993 100.056C158.694 100.056 165.57 96.4828 171.346 89.0611V98.9567H191.148V33.8103C191.148 32.7108 190.598 31.8861 190.048 31.3364C189.773 31.0615 188.948 30.5117 187.848 30.5117Z" fill="#005EAC"/>
<path d="M305.284 30.5117H288.782C288.782 50.0282 288.782 69.2697 288.782 88.7862C288.782 91.535 289.607 93.734 291.808 95.6582C293.733 97.5823 295.383 98.407 298.683 98.6818C301.984 98.6818 305.284 98.6818 308.584 98.6818V34.0852C308.584 33.2605 308.309 32.161 307.484 31.6112C306.934 30.7866 306.109 30.5117 305.284 30.5117Z" fill="#005EAC"/>
<path d="M248.352 29.1373C240.376 29.1373 233.775 32.7108 227.724 40.1325V33.8103V30.2368H207.922V88.5113C207.922 91.535 209.022 93.734 210.947 95.6582C212.872 97.3074 215.073 98.407 217.823 98.407H227.724V54.4262C232.4 46.7296 236.8 43.1562 241.476 43.1562C248.077 43.1562 251.377 47.8291 251.377 56.9002V98.6818H271.179V55.5258C271.179 47.0045 268.979 40.6823 264.578 36.0093C260.453 31.3364 254.952 29.1373 248.352 29.1373Z" fill="#005EAC"/>
<path d="M583.34 36.0094C578.94 31.3364 573.439 29.1374 566.563 29.1374C558.863 29.1374 551.987 32.9857 546.486 40.4074H546.211V6.04749C546.211 5.49773 546.211 4.39822 545.111 3.57358C544.286 2.74894 543.736 2.47406 542.636 2.47406H526.134V88.7862C526.134 91.8099 527.509 94.5587 529.159 95.9331C531.359 97.8572 533.56 98.6819 536.31 98.9568C539.61 98.9568 542.911 98.9568 546.211 98.9568V55.2509C550.612 48.3789 555.012 44.8055 559.413 44.8055C566.288 44.8055 570.414 49.7533 570.414 59.649V98.6819H589.391V55.2509C589.941 47.0045 587.741 40.6823 583.34 36.0094Z" fill="#005EAC"/>
<path d="M369.641 30.5117C363.041 30.5117 356.715 30.5117 350.114 30.5117V7.97162C327.287 10.4455 339.938 23.3649 328.937 28.5876C316.01 34.36 318.486 38.4832 317.936 45.3552H330.312V74.7673C330.312 83.2886 332.512 89.6108 336.638 93.734C341.038 98.1321 347.089 100.331 354.79 100.331C360.565 100.331 366.891 98.9567 373.217 95.9331V80.2649C368.541 83.0137 364.141 84.1132 360.015 84.1132C356.99 84.1132 354.79 83.2886 352.865 81.0896C351.214 79.1654 350.389 76.4166 350.389 73.1181V45.0803H373.217V33.8103C373.217 32.9857 372.942 32.161 372.117 31.3364C371.292 30.7866 370.742 30.5117 369.641 30.5117Z" fill="#005EAC"/>
<path d="M481.853 79.1654C478.278 75.592 476.628 70.6441 476.628 64.5968C476.628 58.5494 478.553 53.8765 481.853 50.303C485.429 46.7296 491.755 44.8055 497.805 44.8055C503.031 44.8055 508.531 46.4547 514.032 49.4784V33.5354C506.606 30.5117 499.455 29.1373 492.855 29.1373C482.403 29.1373 473.878 32.4359 467.277 39.3079C460.676 46.1799 457.101 54.7011 457.101 65.1465C457.101 75.8668 460.401 84.3881 467.002 90.7103C473.602 97.3074 482.404 100.331 493.68 100.331C500.281 100.331 507.156 98.6818 514.857 95.6582V80.2649C507.156 83.2886 501.381 84.9379 496.98 84.9379C491.48 84.9379 485.429 83.0137 481.853 79.1654Z" fill="#005EAC"/>
<path d="M416.123 29.1373C415.573 29.1373 415.298 29.1373 414.748 29.1373C405.121 29.1373 397.146 32.4359 390.82 39.3079C384.494 45.905 381.469 54.4262 381.469 65.1465C381.469 75.8668 384.769 84.3881 391.37 90.7103C397.696 96.7577 405.947 100.056 416.123 100.331C416.673 100.331 417.498 100.331 418.048 100.331C429.324 100.331 438.675 97.3074 446.376 91.2601V77.791C438.125 84.3881 430.424 87.4118 422.999 87.4118C420.523 87.4118 418.323 87.1369 416.398 86.5871C413.372 85.7625 410.622 84.3881 408.422 82.4639C404.846 79.1654 402.096 74.2176 401.546 68.1702H416.398H447.476C448.026 56.3504 445.001 46.7296 438.675 39.8576C432.625 32.9856 425.199 29.4122 416.123 29.1373ZM416.123 56.9002H401.546C402.371 47.0045 407.872 42.0567 416.123 42.0567C424.099 42.0567 428.774 47.0045 429.874 56.9002H416.123Z" fill="#005EAC"/>
</g>
<defs>
<clipPath id="clip0_4168_326">
<rect width="589" height="111" fill="white"/>
</clipPath>
</defs>
</svg>
