<svg width="24" height="24" viewBox="0 0 24 24" fill="none" xmlns="http://www.w3.org/2000/svg">
<path d="M12.6664 20.6667C17.8212 20.6667 22 16.488 22 11.3333C22 6.17867 17.8212 2 12.6664 2C7.59819 2 3.47338 6.03933 3.33604 11.0733C3.54983 11.0249 3.77095 11.0004 3.9994 11H8.66622C9.4619 11 10.225 11.3161 10.7876 11.8787C11.3502 12.4413 11.6663 13.2044 11.6663 14V20C11.6663 20.2084 11.6457 20.4107 11.6043 20.6067C11.9528 20.6467 12.3063 20.6667 12.6664 20.6667ZM11.3336 6.66667C11.3336 6.48986 11.4039 6.32029 11.5289 6.19526C11.6539 6.07024 11.8235 6 12.0003 6C12.1771 6 12.3467 6.07024 12.4718 6.19526C12.5968 6.32029 12.667 6.48986 12.667 6.66667V11.3333H15.3338C15.5106 11.3333 15.6802 11.4036 15.8052 11.5286C15.9302 11.6536 16.0005 11.8232 16.0005 12C16.0005 12.1768 15.9302 12.3464 15.8052 12.4714C15.6802 12.5964 15.5106 12.6667 15.3338 12.6667H12.0003C11.8235 12.6667 11.6539 12.5964 11.5289 12.4714C11.4039 12.3464 11.3336 12.1768 11.3336 12V6.66667ZM2 14C2 13.4696 2.21072 12.9609 2.58581 12.5858C2.96089 12.2107 3.46962 12 4.00007 12H8.66689C9.19734 12 9.70606 12.2107 10.0811 12.5858C10.4562 12.9609 10.667 13.4696 10.667 14V20C10.667 20.5304 10.4562 21.0391 10.0811 21.4142C9.70606 21.7893 9.19734 22 8.66689 22H4.00007C3.46962 22 2.96089 21.7893 2.58581 21.4142C2.21072 21.0391 2 20.5304 2 20V14ZM8.16687 14H4.50008C4.36747 14 4.24029 14.0527 4.14652 14.1464C4.05275 14.2402 4.00007 14.3674 4.00007 14.5C4.00007 14.6326 4.05275 14.7598 4.14652 14.8536C4.24029 14.9473 4.36747 15 4.50008 15H8.16687C8.29948 15 8.42667 14.9473 8.52044 14.8536C8.61421 14.7598 8.66689 14.6326 8.66689 14.5C8.66689 14.3674 8.61421 14.2402 8.52044 14.1464C8.42667 14.0527 8.29948 14 8.16687 14ZM8.16687 16.5H4.50008C4.36747 16.5 4.24029 16.5527 4.14652 16.6464C4.05275 16.7402 4.00007 16.8674 4.00007 17C4.00007 17.1326 4.05275 17.2598 4.14652 17.3536C4.24029 17.4473 4.36747 17.5 4.50008 17.5H8.16687C8.29948 17.5 8.42667 17.4473 8.52044 17.3536C8.61421 17.2598 8.66689 17.1326 8.66689 17C8.66689 16.8674 8.61421 16.7402 8.52044 16.6464C8.42667 16.5527 8.29948 16.5 8.16687 16.5ZM8.16687 19H4.50008C4.36747 19 4.24029 19.0527 4.14652 19.1464C4.05275 19.2402 4.00007 19.3674 4.00007 19.5C4.00007 19.6326 4.05275 19.7598 4.14652 19.8536C4.24029 19.9473 4.36747 20 4.50008 20H8.16687C8.29948 20 8.42667 19.9473 8.52044 19.8536C8.61421 19.7598 8.66689 19.6326 8.66689 19.5C8.66689 19.3674 8.61421 19.2402 8.52044 19.1464C8.42667 19.0527 8.29948 19 8.16687 19Z" fill="#4C87B2"/>
</svg>
