<svg width="24" height="24" viewBox="0 0 24 24" fill="none" xmlns="http://www.w3.org/2000/svg">
<path fill-rule="evenodd" clip-rule="evenodd" d="M12.0022 3.0003C12.1122 3.0003 12.3662 3.0653 12.7372 3.4663C13.0992 3.8563 13.4812 4.4743 13.8282 5.3123C14.0512 5.8493 14.2512 6.4573 14.4212 7.1243C12.8129 6.95714 11.1916 6.95714 9.58325 7.1243C9.75325 6.4573 9.95325 5.8493 10.1762 5.3123C10.5232 4.4743 10.9052 3.8563 11.2662 3.4653C11.6382 3.0653 11.8912 3.0003 12.0022 3.0003ZM9.18725 9.1853C10.1204 9.0606 11.0608 8.9988 12.0022 9.0003C12.9872 9.0003 13.9322 9.0663 14.8172 9.1853C14.9362 10.0703 15.0022 11.0153 15.0022 12.0003C15.0022 12.9853 14.9362 13.9303 14.8172 14.8153C13.8841 14.94 12.9437 15.0018 12.0022 15.0003C11.0172 15.0003 10.0723 14.9343 9.18725 14.8153C9.06256 13.8822 9.00075 12.9417 9.00225 12.0003C9.00225 11.0153 9.06825 10.0703 9.18725 9.1853ZM7.12725 14.4193C6.96009 12.811 6.96009 11.1896 7.12725 9.5813C6.45925 9.7513 5.85025 9.9513 5.31425 10.1743C4.47625 10.5213 3.85825 10.9033 3.46725 11.2643C3.06725 11.6363 3.00225 11.8893 3.00225 12.0003C3.00225 12.1113 3.06725 12.3643 3.46725 12.7353C3.85825 13.0973 4.47625 13.4793 5.31425 13.8263C5.9034 14.0667 6.50994 14.2649 7.12725 14.4193ZM9.58325 16.8763C11.1916 17.0435 12.8129 17.0435 14.4212 16.8763C14.2512 17.5433 14.0512 18.1523 13.8282 18.6883C13.4812 19.5263 13.0992 20.1443 12.7382 20.5353C12.3662 20.9353 12.1132 21.0003 12.0022 21.0003C11.8912 21.0003 11.6383 20.9353 11.2673 20.5353C10.9053 20.1443 10.5232 19.5263 10.1762 18.6883C9.93581 18.0991 9.73764 17.4936 9.58325 16.8763ZM16.8772 14.4193C17.0444 12.811 17.0444 11.1896 16.8772 9.5813C17.4949 9.73564 18.1008 9.93381 18.6903 10.1743C19.5283 10.5213 20.1463 10.9033 20.5373 11.2643C20.9373 11.6363 21.0023 11.8893 21.0023 12.0003C21.0023 12.1113 20.9373 12.3643 20.5373 12.7353C20.1463 13.0973 19.5283 13.4793 18.6903 13.8263C18.1533 14.0493 17.5442 14.2493 16.8772 14.4193ZM16.5493 7.4533C16.3493 6.45925 16.057 5.48603 15.6762 4.5463C15.3092 3.6623 14.8682 2.8813 14.3572 2.2793C16.1423 2.7138 17.7736 3.63073 19.0727 4.92983C20.3718 6.22894 21.2887 7.86021 21.7233 9.6453C21.1213 9.1353 20.3403 8.6933 19.4563 8.3263C18.5165 7.94551 17.5433 7.65325 16.5493 7.4533ZM16.5493 16.5473C16.3493 17.5413 16.057 18.5146 15.6762 19.4543C15.3092 20.3383 14.8682 21.1193 14.3572 21.7213C16.1423 21.2868 17.7736 20.3699 19.0727 19.0708C20.3718 17.7717 21.2887 16.1404 21.7233 14.3553C21.1213 14.8653 20.3403 15.3073 19.4563 15.6743C18.6053 16.0273 17.6243 16.3243 16.5493 16.5473ZM9.64725 21.7213C9.13725 21.1193 8.69525 20.3383 8.32825 19.4543C7.94747 18.5146 7.6552 17.5413 7.45525 16.5473C6.46121 16.3473 5.48799 16.0551 4.54825 15.6743C3.66425 15.3073 2.88225 14.8663 2.28125 14.3553C2.71575 16.1404 3.63268 17.7717 4.93178 19.0708C6.23089 20.3699 7.86216 21.2868 9.64725 21.7213ZM7.45525 7.4533C7.67825 6.3783 7.97525 5.3973 8.32825 4.5463C8.69525 3.6623 9.13625 2.8813 9.64725 2.2793C7.86216 2.7138 6.23089 3.63073 4.93178 4.92983C3.63268 6.22894 2.71575 7.86021 2.28125 9.6453C2.88225 9.1353 3.66425 8.6933 4.54825 8.3263C5.48799 7.94551 6.46121 7.65325 7.45525 7.4533Z" fill="#4C87B2"/>
</svg>
