<svg width="24" height="24" viewBox="0 0 24 24" fill="none" xmlns="http://www.w3.org/2000/svg">
<path d="M13.4996 19.1259C13.4996 19.4226 13.4116 19.7126 13.2468 19.9593C13.082 20.206 12.8477 20.3982 12.5736 20.5118C12.2995 20.6253 11.9979 20.655 11.7069 20.5971C11.416 20.5392 11.1487 20.3964 10.9389 20.1866C10.7291 19.9768 10.5863 19.7095 10.5284 19.4186C10.4705 19.1276 10.5002 18.826 10.6138 18.5519C10.7273 18.2778 10.9196 18.0436 11.1662 17.8787C11.4129 17.7139 11.7029 17.6259 11.9996 17.6259C12.3974 17.6259 12.7789 17.784 13.0602 18.0653C13.3415 18.3466 13.4996 18.7281 13.4996 19.1259ZM20.3433 7.50094L21.7983 6.04687C22.0097 5.83553 22.1284 5.54888 22.1284 5.25C22.1284 4.95111 22.0097 4.66447 21.7983 4.45312C21.587 4.24178 21.3003 4.12305 21.0015 4.12305C20.7026 4.12305 20.4159 4.24178 20.2046 4.45312L18.7496 5.90719L17.2955 4.455C17.0842 4.24365 16.7975 4.12492 16.4986 4.12492C16.1998 4.12492 15.9131 4.24365 15.7018 4.455C15.4904 4.66634 15.3717 4.95299 15.3717 5.25187C15.3717 5.55076 15.4904 5.8374 15.7018 6.04875L17.1558 7.50094L15.7036 8.955C15.4923 9.16634 15.3736 9.45299 15.3736 9.75187C15.3736 10.0508 15.4923 10.3374 15.7036 10.5487C15.915 10.7601 16.2016 10.8788 16.5005 10.8788C16.7994 10.8788 17.0861 10.7601 17.2974 10.5487L18.7496 9.09469L20.2036 10.5497C20.3083 10.6543 20.4325 10.7373 20.5693 10.794C20.706 10.8506 20.8525 10.8798 21.0005 10.8798C21.1485 10.8798 21.2951 10.8506 21.4318 10.794C21.5685 10.7373 21.6928 10.6543 21.7974 10.5497C21.902 10.445 21.9851 10.3208 22.0417 10.1841C22.0983 10.0473 22.1275 9.9008 22.1275 9.75281C22.1275 9.60482 22.0983 9.45827 22.0417 9.32154C21.9851 9.18482 21.902 9.06058 21.7974 8.95594L20.3433 7.50094ZM16.4152 14.5603C15.1331 13.6275 13.5884 13.1251 12.0029 13.1251C10.4174 13.1251 8.87262 13.6275 7.59052 14.5603C7.34934 14.736 7.18782 15.0003 7.14149 15.295C7.09517 15.5898 7.16783 15.8908 7.34349 16.132C7.51916 16.3732 7.78343 16.5347 8.07819 16.5811C8.37294 16.6274 8.67403 16.5547 8.91521 16.3791C9.8125 15.7266 10.8934 15.3751 12.0029 15.3751C13.1123 15.3751 14.1932 15.7266 15.0905 16.3791C15.3317 16.5547 15.6328 16.6274 15.9275 16.5811C16.2223 16.5347 16.4866 16.3732 16.6622 16.132C16.8379 15.8908 16.9106 15.5898 16.8642 15.295C16.8179 15.0003 16.6564 14.736 16.4152 14.5603ZM13.1246 5.25094C13.1246 4.95257 13.0061 4.66642 12.7951 4.45544C12.5841 4.24446 12.298 4.12594 11.9996 4.12594C8.18444 4.1279 4.48749 5.44987 1.53615 7.8675C1.42196 7.96125 1.32735 8.07657 1.25774 8.20689C1.18812 8.3372 1.14485 8.47995 1.13039 8.62699C1.11594 8.77402 1.13059 8.92246 1.17351 9.06384C1.21643 9.20521 1.28677 9.33675 1.38052 9.45094C1.47427 9.56512 1.5896 9.65973 1.71991 9.72935C1.85023 9.79897 1.99297 9.84224 2.14001 9.85669C2.28705 9.87114 2.43549 9.85649 2.57686 9.81357C2.71824 9.77065 2.84977 9.70031 2.96396 9.60656C5.51271 7.51913 8.70512 6.37771 11.9996 6.37594C12.298 6.37594 12.5841 6.25741 12.7951 6.04643C13.0061 5.83545 13.1246 5.5493 13.1246 5.25094ZM13.1246 9.75094C13.1246 9.45257 13.0061 9.16642 12.7951 8.95544C12.5841 8.74446 12.298 8.62594 11.9996 8.62594C9.29407 8.61591 6.66625 9.53011 4.55115 11.2172C4.32314 11.4043 4.17776 11.6736 4.14632 11.9669C4.11488 12.2602 4.19989 12.5541 4.38306 12.7853C4.56622 13.0165 4.83287 13.1666 5.12559 13.2031C5.4183 13.2396 5.71365 13.1597 5.94802 12.9806C7.66652 11.6101 9.80153 10.8676 11.9996 10.8759C12.298 10.8759 12.5841 10.7574 12.7951 10.5464C13.0061 10.3355 13.1246 10.0493 13.1246 9.75094Z" fill="#4C87B2"/>
</svg>
