<svg width="24" height="24" viewBox="0 0 24 24" fill="none" xmlns="http://www.w3.org/2000/svg">
<path d="M24 23.9995H22.4883L21 12.5854C20.9766 12.3823 20.9375 12.1792 20.8828 11.9761C20.8281 11.7729 20.7227 11.5933 20.5664 11.437L15.3281 6.23389L15.7148 10.8979L16.7461 11.9292C17.082 12.2651 17.4258 12.6128 17.7773 12.9722L16.7227 14.0269L12.3867 9.70264C12.168 9.48389 11.9062 9.37451 11.6016 9.37451C11.4531 9.37451 11.3125 9.40186 11.1797 9.45654C11.0469 9.51123 10.9297 9.59326 10.8281 9.70264C10.7266 9.81201 10.6484 9.9292 10.5938 10.0542C10.5391 10.1792 10.5078 10.3198 10.5 10.4761C10.5 10.7808 10.6094 11.0425 10.8281 11.2612L12.75 13.1948V14.9995C12.75 15.5151 12.8398 15.9956 13.0195 16.4409C13.1992 16.8862 13.4531 17.2729 13.7812 17.6011C14.1094 17.9292 14.4922 18.1948 14.9297 18.3979C15.3672 18.6011 15.8438 18.7144 16.3594 18.7378V18.8081C16.3594 18.8315 16.3555 18.855 16.3477 18.8784C16.3477 19.0034 16.3555 19.1401 16.3711 19.2886C16.3867 19.437 16.4023 19.5854 16.418 19.7339C16.4336 19.8823 16.4531 20.0347 16.4766 20.1909C16.5 20.3472 16.5078 20.4839 16.5 20.6011C16.5 20.8745 16.4492 21.1245 16.3477 21.3511C16.2461 21.5776 16.1055 21.7769 15.9258 21.9487C15.7461 22.1206 15.5391 22.2534 15.3047 22.3472C15.0703 22.4409 14.8164 22.4917 14.543 22.4995H1.81641C1.56641 22.4995 1.33203 22.4565 1.11328 22.3706C0.894531 22.2847 0.699219 22.1636 0.527344 22.0073C0.355469 21.8511 0.226563 21.6675 0.140625 21.4565C0.0546875 21.2456 0.0078125 21.0073 0 20.7417V20.5894C0 20.5425 0.0078125 20.4917 0.0234375 20.437L2.80078 2.57764C2.83203 2.39795 2.90625 2.2417 3.02344 2.10889C3.14062 1.97607 3.27734 1.8667 3.43359 1.78076C3.58984 1.69482 3.76172 1.62451 3.94922 1.56982C4.13672 1.51514 4.30859 1.4917 4.46484 1.49951H13.4414C13.5977 1.49951 13.7656 1.51904 13.9453 1.55811C14.125 1.59717 14.293 1.66357 14.4492 1.75732C14.6055 1.85107 14.7383 1.96436 14.8477 2.09717C14.957 2.22998 15.0195 2.39014 15.0352 2.57764L15.1406 3.92529L21.6094 10.3706C21.8906 10.6519 22.0937 10.9604 22.2188 11.2964C22.3438 11.6323 22.4336 11.9995 22.4883 12.3979L24 23.9995ZM14.0742 9.25732L13.5586 3.01123C13.5352 3.00342 13.4961 2.99951 13.4414 2.99951H4.46484C4.42578 2.99951 4.39063 3.00342 4.35938 3.01123C4.32812 3.01904 4.28906 3.02686 4.24219 3.03467L1.5 20.6714V20.7417C1.5 20.8276 1.53125 20.8901 1.59375 20.9292C1.65625 20.9683 1.73047 20.9917 1.81641 20.9995H14.543C14.6523 20.9995 14.7539 20.9683 14.8477 20.9058C14.9414 20.8433 14.9922 20.7495 15 20.6245C15 20.5229 14.9961 20.4214 14.9883 20.3198C14.9805 20.2183 14.9688 20.1128 14.9531 20.0034C14.5469 19.8862 14.168 19.7222 13.8164 19.5112C13.4648 19.3003 13.1367 19.0503 12.832 18.7612C12.5273 18.4722 12.2695 18.1519 12.0586 17.8003C11.8477 17.4487 11.668 17.0737 11.5195 16.6753C11.3945 16.3159 11.3203 15.9683 11.2969 15.6323C11.2734 15.2964 11.2578 14.9487 11.25 14.5894V13.8042L9.76172 12.3276C9.51172 12.0776 9.32422 11.7964 9.19922 11.4839C9.07422 11.1714 9.00781 10.8354 9 10.4761C9 10.1167 9.06641 9.78076 9.19922 9.46826C9.33203 9.15576 9.51953 8.87842 9.76172 8.63623C10.0039 8.39404 10.2773 8.21045 10.582 8.08545C10.8867 7.96045 11.2266 7.89014 11.6016 7.87451C11.8906 7.87451 12.1445 7.90967 12.3633 7.97998C12.582 8.05029 12.7891 8.14795 12.9844 8.27295C13.1797 8.39795 13.3594 8.54248 13.5234 8.70654C13.6875 8.87061 13.8711 9.0542 14.0742 9.25732ZM6.75 19.4995V17.9995H9.75V19.4995H6.75Z" fill="#4C87B2"/>
</svg>
