<svg width="24" height="24" viewBox="0 0 24 24" fill="none" xmlns="http://www.w3.org/2000/svg">
<path d="M13 2.05078V5.08078C16.39 5.57078 19 8.47078 19 12.0008C19 12.9008 18.82 13.7508 18.52 14.5408L21.12 16.0708C21.68 14.8308 22 13.4508 22 12.0008C22 6.82078 18.05 2.55078 13 2.05078ZM12 19.0008C8.13 19.0008 5 15.8708 5 12.0008C5 8.47078 7.61 5.57078 11 5.08078V2.05078C5.94 2.55078 2 6.81078 2 12.0008C2 17.5208 6.47 22.0008 11.99 22.0008C15.3 22.0008 18.23 20.3908 20.05 17.9108L17.45 16.3808C16.7976 17.1998 15.9686 17.8609 15.0249 18.3146C14.0812 18.7683 13.0471 19.0028 12 19.0008Z" fill="#4C87B2"/>
</svg>
