<svg width="24" height="24" viewBox="0 0 24 24" fill="none" xmlns="http://www.w3.org/2000/svg">
<path d="M22 12C22 6.477 17.523 2 12 2C6.477 2 2 6.477 2 12C2 17.523 6.477 22 12 22" stroke="#4C87B2" stroke-width="1.5" stroke-linecap="round" stroke-linejoin="round"/>
<path d="M13.0028 2.05078C13.0028 2.05078 16.0028 6.00078 16.0028 12.0008M11.0028 21.9508C11.0028 21.9508 8.00281 18.0008 8.00281 12.0008C8.00281 6.00078 11.0028 2.05078 11.0028 2.05078M2.63281 15.5008H12.0028M2.63281 8.50078H21.3728M19.0028 17.5008V19.0008H20.5028" stroke="#4C87B2" stroke-width="1.5" stroke-linecap="round" stroke-linejoin="round"/>
<path d="M19 23C20.0609 23 21.0783 22.5786 21.8284 21.8284C22.5786 21.0783 23 20.0609 23 19C23 17.9391 22.5786 16.9217 21.8284 16.1716C21.0783 15.4214 20.0609 15 19 15C17.9391 15 16.9217 15.4214 16.1716 16.1716C15.4214 16.9217 15 17.9391 15 19C15 20.0609 15.4214 21.0783 16.1716 21.8284C16.9217 22.5786 17.9391 23 19 23Z" stroke="#4C87B2" stroke-width="1.5" stroke-linecap="round" stroke-linejoin="round"/>
</svg>
