<svg width="24" height="24" viewBox="0 0 24 24" fill="none" xmlns="http://www.w3.org/2000/svg">
<path fill-rule="evenodd" clip-rule="evenodd" d="M15.5969 11.0823C15.7069 11.3723 15.9869 11.5723 16.2969 11.5723C16.6069 11.5723 16.8869 11.3723 16.9969 11.0823L17.2669 10.3623C17.5669 9.56227 17.7169 9.16227 17.9269 8.95227C18.1349 8.74427 18.5289 8.59527 19.3329 8.29227L19.3569 8.28227L20.0569 8.02227C20.3469 7.91227 20.5469 7.63227 20.5469 7.32227C20.5469 7.01227 20.3469 6.73227 20.0569 6.62227L19.3369 6.35227C18.5369 6.05227 18.1369 5.90227 17.9269 5.69227C17.7189 5.48427 17.5699 5.08927 17.2649 4.28427L17.2569 4.26227L16.9969 3.56227C16.9428 3.41983 16.8471 3.29695 16.7223 3.20958C16.5974 3.1222 16.4492 3.07436 16.2969 3.07227C15.9869 3.07227 15.7069 3.27227 15.5969 3.56227L15.3269 4.28227C15.0269 5.08227 14.8769 5.48227 14.6669 5.69227C14.4589 5.90027 14.0639 6.05027 13.2589 6.35427L13.2369 6.36227L12.5369 6.62227C12.2469 6.73227 12.0469 7.01227 12.0469 7.32227C12.0469 7.63227 12.2469 7.91227 12.5369 8.02227L13.2569 8.29227C14.0569 8.59227 14.4569 8.74227 14.6669 8.95227C14.8749 9.16027 15.0239 9.55527 15.3289 10.3603L15.3369 10.3823L15.5969 11.0823ZM15.7269 7.89227C15.4969 7.65227 15.2269 7.48227 14.8769 7.32227C15.2169 7.16227 15.4869 6.99227 15.7269 6.75227C15.9669 6.52227 16.1369 6.25227 16.2969 5.90227C16.4569 6.24227 16.6269 6.51227 16.8669 6.75227C17.0969 6.99227 17.3669 7.16227 17.7169 7.32227C17.3769 7.48227 17.1069 7.65227 16.8669 7.89227C16.6269 8.12227 16.4569 8.39227 16.2969 8.74227C16.1369 8.40227 15.9669 8.13227 15.7269 7.89227ZM11.7969 19.5723C7.52688 19.5723 4.04688 16.0923 4.04688 11.8223C4.04688 7.55227 7.52688 4.07227 11.7969 4.07227C12.2069 4.07227 12.5469 4.41227 12.5469 4.82227C12.5469 5.23227 12.2069 5.57227 11.7969 5.57227C8.34687 5.57227 5.54688 8.37227 5.54688 11.8223C5.54688 15.2723 8.34687 18.0723 11.7969 18.0723C15.2469 18.0723 18.0469 15.2723 18.0469 11.8223C18.0469 11.4123 18.3869 11.0723 18.7969 11.0723C19.2069 11.0723 19.5469 11.4123 19.5469 11.8223C19.549 13.6189 18.9229 15.3597 17.7769 16.7433L21.3269 20.2933C21.6169 20.5833 21.6169 21.0633 21.3269 21.3533C21.1769 21.5033 20.9869 21.5733 20.7969 21.5733C20.6069 21.5733 20.4169 21.5033 20.2669 21.3533L16.7169 17.8033C15.3335 18.9491 13.5931 19.5742 11.7969 19.5723Z" fill="#4C87B2"/>
</svg>
