<svg width="24" height="24" viewBox="0 0 24 24" fill="none" xmlns="http://www.w3.org/2000/svg">
<path d="M15.9491 2.39044L21.6061 8.04744C21.7936 8.23497 21.8989 8.48928 21.8989 8.75444C21.8989 9.01961 21.7936 9.27392 21.6061 9.46144L13.8281 17.2394L11.7061 17.9464L10.2921 19.3614C10.1046 19.5489 9.85029 19.6542 9.58512 19.6542C9.31996 19.6542 9.06565 19.5489 8.87812 19.3614L4.63513 15.1184C4.44765 14.9309 4.34234 14.6766 4.34234 14.4114C4.34234 14.1463 4.44765 13.892 4.63513 13.7044L6.04913 12.2904L6.75612 10.1684L14.5351 2.39044C14.7227 2.20297 14.977 2.09766 15.2421 2.09766C15.5073 2.09766 15.7616 2.20297 15.9491 2.39044ZM16.6561 5.92644L10.2921 12.2904L11.7061 13.7044L18.0701 7.34044L16.6561 5.92644ZM4.28212 16.8864L7.11013 19.7144L5.69613 21.1294L1.45312 19.7144L4.28212 16.8864Z" fill="#4C87B2"/>
</svg>
