<svg width="24" height="24" viewBox="0 0 24 24" fill="none" xmlns="http://www.w3.org/2000/svg">
<path d="M4.17167 18.8204C3.70476 18.597 3.37485 18.1711 3.30305 17.6584C3.17399 16.7343 3 14.9829 3 12.2502C3 9.5175 3.17399 7.76617 3.30305 6.84205L3.30349 6.83984C5.63052 7.96306 10.8405 10.4002 12.25 10.4002C13.6604 10.4002 18.8695 7.9635 21.1961 6.83984L21.197 6.84205C21.326 7.76617 21.5 9.5175 21.5 12.2502C21.5 14.9829 21.326 16.7343 21.197 17.6584C21.1252 18.1711 20.7952 18.597 20.3283 18.8204C18.6484 19.6242 14.4867 21.5002 12.25 21.5002C10.0133 21.5002 5.85164 19.6238 4.17167 18.8204Z" fill="#4C87B2" fill-opacity="0.5"/>
<path d="M21.1977 6.83963C18.8707 7.96285 13.6616 10.4 12.2516 10.4C10.8408 10.4 5.63172 7.96284 3.30469 6.83919C3.37737 6.32824 3.70684 5.90274 4.17331 5.67986C5.85284 4.87599 10.0145 3 12.2512 3C14.4879 3 18.6491 4.87643 20.3291 5.67986C20.7951 5.90274 21.1255 6.3278 21.1977 6.83963Z" fill="#4C87B2" fill-opacity="0.5"/>
<path d="M3.30305 17.6582C3.37485 18.1709 3.70476 18.5968 4.17167 18.8201C5.85164 19.624 10.0133 21.5 12.25 21.5C14.4867 21.5 18.6484 19.6236 20.3283 18.8201C20.7952 18.5968 21.1252 18.1709 21.197 17.6582C21.326 16.734 21.5 14.9827 21.5 12.25C21.5 9.51729 21.326 7.76595 21.197 6.84183C21.1252 6.32912 20.7952 5.90318 20.3283 5.67986C18.6484 4.87599 14.4867 3 12.25 3C10.0133 3 5.85164 4.87643 4.17167 5.67986C3.70476 5.90318 3.37485 6.32912 3.30305 6.84183C3.17399 7.76595 3 9.51729 3 12.25C3 14.9827 3.17399 16.734 3.30305 17.6582Z" stroke="#4C87B2" stroke-width="1.5" stroke-linejoin="round"/>
<path d="M21.1873 6.85938C19.7567 7.56414 13.89 10.4026 12.2541 10.4026M12.2541 10.4026C10.6177 10.4026 4.75098 7.5637 3.32031 6.85938M12.2541 10.4026V21.3924" stroke="#4C87B2" stroke-width="1.5" stroke-linecap="round" stroke-linejoin="round"/>
</svg>
