<svg width="24" height="24" viewBox="0 0 24 24" fill="none" xmlns="http://www.w3.org/2000/svg">
<path d="M15 8H15.01M10 21H6C5.20435 21 4.44129 20.6839 3.87868 20.1213C3.31607 19.5587 3 18.7956 3 18V6C3 5.20435 3.31607 4.44129 3.87868 3.87868C4.44129 3.31607 5.20435 3 6 3H18C18.7956 3 19.5587 3.31607 20.1213 3.87868C20.6839 4.44129 21 5.20435 21 6V11" stroke="#4C87B2" stroke-width="2" stroke-linecap="round" stroke-linejoin="round"/>
<path d="M3 16.0018L8 11.0018C8.928 10.1088 10.072 10.1088 11 11.0018L12 12.0018M14 21.0018V17.0018C14 16.4713 14.2107 15.9626 14.5858 15.5876C14.9609 15.2125 15.4696 15.0018 16 15.0018C16.5304 15.0018 17.0391 15.2125 17.4142 15.5876C17.7893 15.9626 18 16.4713 18 17.0018V21.0018M14 19.0018H18M21 15.0018V21.0018" stroke="#4C87B2" stroke-width="2" stroke-linecap="round" stroke-linejoin="round"/>
</svg>
