<svg width="24" height="24" viewBox="0 0 24 24" fill="none" xmlns="http://www.w3.org/2000/svg">
<g clip-path="url(#clip0_4042_411)">
<path d="M0 12C0 12.1642 0.0323316 12.3267 0.09515 12.4784C0.157968 12.63 0.250042 12.7678 0.366116 12.8839C0.482189 13 0.61999 13.092 0.771646 13.1548C0.923303 13.2177 1.08585 13.25 1.25 13.25H2.84C3.11712 15.25 4.03966 17.1049 5.4674 18.5326C6.89513 19.9603 8.74998 20.8829 10.75 21.16V22.75C10.75 23.0815 10.8817 23.3995 11.1161 23.6339C11.3505 23.8683 11.6685 24 12 24C12.3315 24 12.6495 23.8683 12.8839 23.6339C13.1183 23.3995 13.25 23.0815 13.25 22.75V21.16C15.25 20.8829 17.1049 19.9603 18.5326 18.5326C19.9603 17.1049 20.8829 15.25 21.16 13.25H22.75C23.0815 13.25 23.3995 13.1183 23.6339 12.8839C23.8683 12.6495 24 12.3315 24 12C24 11.6685 23.8683 11.3505 23.6339 11.1161C23.3995 10.8817 23.0815 10.75 22.75 10.75H21.16C20.884 8.75052 19.9616 6.89619 18.5335 5.46985C17.1053 4.04351 15.2498 3.12344 13.25 2.85V1.25C13.25 0.918479 13.1183 0.600536 12.8839 0.366116C12.6495 0.131695 12.3315 0 12 0C11.6685 0 11.3505 0.131695 11.1161 0.366116C10.8817 0.600536 10.75 0.918479 10.75 1.25V2.85C8.75018 3.12344 6.89468 4.04351 5.46653 5.46985C4.03838 6.89619 3.11597 8.75052 2.84 10.75H1.25C1.08585 10.75 0.923303 10.7823 0.771646 10.8452C0.61999 10.908 0.482189 11 0.366116 11.1161C0.250042 11.2322 0.157968 11.37 0.09515 11.5216C0.0323316 11.6733 0 11.8358 0 12ZM10.44 5.44C10.4725 5.42333 10.5085 5.41463 10.545 5.41463C10.5815 5.41463 10.6175 5.42333 10.65 5.44C10.6803 5.46173 10.7051 5.49021 10.7224 5.52319C10.7398 5.55617 10.7492 5.59274 10.75 5.63V6.75C10.75 7.08152 10.8817 7.39946 11.1161 7.63388C11.3505 7.8683 11.6685 8 12 8C12.3315 8 12.6495 7.8683 12.8839 7.63388C13.1183 7.39946 13.25 7.08152 13.25 6.75V5.68C13.2508 5.64274 13.2602 5.60617 13.2776 5.57319C13.2949 5.54022 13.3197 5.51173 13.35 5.49C13.3825 5.47333 13.4185 5.46463 13.455 5.46463C13.4915 5.46463 13.5275 5.47333 13.56 5.49C14.7748 5.77853 15.8855 6.39881 16.7683 7.28166C17.6512 8.16452 18.2715 9.27525 18.56 10.49C18.5749 10.5248 18.5825 10.5622 18.5825 10.6C18.5825 10.6378 18.5749 10.6752 18.56 10.71C18.5357 10.7392 18.5051 10.7625 18.4704 10.7781C18.4357 10.7937 18.398 10.8012 18.36 10.8H17.25C16.9185 10.8 16.6005 10.9317 16.3661 11.1661C16.1317 11.4005 16 11.7185 16 12.05C16 12.3815 16.1317 12.6995 16.3661 12.9339C16.6005 13.1683 16.9185 13.3 17.25 13.3H18.32C18.3577 13.3004 18.3948 13.3093 18.4286 13.3261C18.4624 13.3429 18.4919 13.3671 18.515 13.3969C18.5381 13.4268 18.5541 13.4614 18.5619 13.4983C18.5697 13.5352 18.5691 13.5734 18.56 13.61C18.2694 14.8238 17.6484 15.9334 16.7659 16.8159C15.8834 17.6984 14.7738 18.3194 13.56 18.61C13.5235 18.6172 13.4858 18.6165 13.4496 18.6078C13.4133 18.5992 13.3794 18.5829 13.35 18.56C13.3195 18.5362 13.2947 18.5059 13.2774 18.4713C13.2601 18.4367 13.2507 18.3987 13.25 18.36V17.25C13.25 16.9185 13.1183 16.6005 12.8839 16.3661C12.6495 16.1317 12.3315 16 12 16C11.6685 16 11.3505 16.1317 11.1161 16.3661C10.8817 16.6005 10.75 16.9185 10.75 17.25V18.32C10.7493 18.3587 10.7399 18.3967 10.7226 18.4313C10.7053 18.4659 10.6805 18.4962 10.65 18.52C10.6206 18.5429 10.5867 18.5592 10.5504 18.5678C10.5142 18.5765 10.4765 18.5772 10.44 18.57C9.22624 18.2794 8.11664 17.6584 7.23412 16.7759C6.3516 15.8934 5.73063 14.7838 5.44 13.57C5.43095 13.5334 5.43029 13.4952 5.43809 13.4583C5.44588 13.4214 5.46192 13.3868 5.48501 13.3569C5.50809 13.3271 5.53763 13.3029 5.57139 13.2861C5.60516 13.2693 5.64229 13.2604 5.68 13.26H6.75C7.08152 13.26 7.39946 13.1283 7.63388 12.8939C7.8683 12.6595 8 12.3415 8 12.01C8 11.6785 7.8683 11.3605 7.63388 11.1261C7.39946 10.8917 7.08152 10.76 6.75 10.76H5.68C5.64202 10.7612 5.60426 10.7537 5.5696 10.7381C5.53495 10.7225 5.5043 10.6992 5.48 10.67C5.46515 10.6352 5.45749 10.5978 5.45749 10.56C5.45749 10.5222 5.46515 10.4848 5.48 10.45C5.76371 9.23844 6.37728 8.12907 7.25273 7.24479C8.12819 6.36051 9.23135 5.73585 10.44 5.44Z" fill="#4C87B2"/>
</g>
<defs>
<clipPath id="clip0_4042_411">
<rect width="24" height="24" fill="white" transform="matrix(-1 0 0 -1 24 24)"/>
</clipPath>
</defs>
</svg>
