<svg width="36" height="36" viewBox="0 0 36 36" fill="none" xmlns="http://www.w3.org/2000/svg">
<g clip-path="url(#clip0_4438_2053)">
<path d="M24.3651 9.77476C20.6935 13.0099 17.6257 16.8715 15.3046 21.1796C14.318 19.5743 13.0335 18.1725 11.5203 17.0496C11.1491 16.7808 10.6863 16.6704 10.2337 16.7428C9.78107 16.8151 9.37575 17.0643 9.10689 17.4356C8.83802 17.8068 8.72763 18.2696 8.80001 18.7222C8.87238 19.1748 9.12159 19.5801 9.49281 19.849C11.169 21.0644 12.5744 22.9536 13.7725 25.609C13.9084 25.9113 14.1283 26.1681 14.4061 26.3489C14.6839 26.5297 15.0078 26.6267 15.3392 26.6285C15.6687 26.6282 15.9913 26.5337 16.2689 26.3562C16.5465 26.1786 16.7675 25.9253 16.9059 25.6263C19.3654 20.3328 22.8042 15.6327 26.5942 12.3783C26.7667 12.2308 26.9084 12.0508 27.0113 11.8485C27.1142 11.6462 27.1762 11.4257 27.1939 11.1994C27.2115 10.9732 27.1845 10.7457 27.1142 10.5299C27.0439 10.3141 26.9318 10.1143 26.7843 9.9418C26.6368 9.76934 26.4568 9.62762 26.2545 9.52473C26.0523 9.42184 25.8317 9.3598 25.6055 9.34215C25.3792 9.3245 25.1517 9.35158 24.9359 9.42186C24.7201 9.49213 24.5203 9.60422 24.3478 9.75172L24.3651 9.77476Z" fill="white"/>
<path d="M18 0C14.4399 0 10.9598 1.05568 7.99974 3.03355C5.03966 5.01141 2.73255 7.82263 1.37018 11.1117C0.00779919 14.4008 -0.348661 18.02 0.345873 21.5116C1.04041 25.0033 2.75474 28.2106 5.27209 30.7279C7.78943 33.2453 10.9967 34.9596 14.4884 35.6541C17.98 36.3487 21.5992 35.9922 24.8883 34.6298C28.1774 33.2675 30.9886 30.9604 32.9665 28.0003C34.9443 25.0402 36 21.5601 36 18C35.9939 13.228 34.0955 8.65315 30.7212 5.27881C27.3469 1.90448 22.772 0.00609649 18 0ZM18 32.256C15.1804 32.256 12.4242 31.4199 10.0798 29.8534C7.73541 28.287 5.90818 26.0605 4.82918 23.4555C3.75018 20.8506 3.46786 17.9842 4.01793 15.2188C4.568 12.4534 5.92576 9.91322 7.91949 7.91949C9.91323 5.92575 12.4534 4.568 15.2188 4.01793C17.9842 3.46785 20.8506 3.75017 23.4555 4.82917C26.0605 5.90818 28.287 7.7354 29.8534 10.0798C31.4199 12.4242 32.256 15.1804 32.256 18C32.253 21.78 30.75 25.4043 28.0772 28.0771C25.4043 30.75 21.78 32.253 18 32.256Z" fill="white"/>
</g>
<defs>
<clipPath id="clip0_4438_2053">
<rect width="36" height="36" fill="white"/>
</clipPath>
</defs>
</svg>
