<svg width="36" height="36" viewBox="0 0 36 36" fill="none" xmlns="http://www.w3.org/2000/svg">
<path fill-rule="evenodd" clip-rule="evenodd" d="M18 35C20.2325 35 22.4431 34.5603 24.5056 33.706C26.5682 32.8516 28.4422 31.5994 30.0208 30.0208C31.5994 28.4422 32.8516 26.5682 33.706 24.5056C34.5603 22.4431 35 20.2325 35 18C35 15.7675 34.5603 13.5569 33.706 11.4944C32.8516 9.43185 31.5994 7.55778 30.0208 5.97918C28.4422 4.40059 26.5682 3.14838 24.5056 2.29405C22.4431 1.43972 20.2325 1 18 1C13.4913 1 9.1673 2.79107 5.97919 5.97918C2.79107 9.1673 1 13.4913 1 18C1 22.5087 2.79107 26.8327 5.97919 30.0208C9.1673 33.2089 13.4913 35 18 35ZM17.5618 24.8756L26.366 14.3104C26.7196 13.8862 26.6623 13.2556 26.238 12.902L24.873 11.7646C24.4488 11.411 23.8183 11.4683 23.4647 11.8925L16.6839 20.028C16.3073 20.4797 15.6242 20.5106 15.2084 20.0946L12.487 17.372C12.0965 16.9813 11.4632 16.9812 11.0726 17.3718L9.81611 18.6283C9.42558 19.0189 9.42558 19.652 9.81611 20.0426L14.7757 25.0021L15.4635 25.6899C15.8792 26.1057 16.5622 26.0747 16.9387 25.6231L17.5618 24.8756Z" fill="white"/>
</svg>
